<svg width="28" height="28" viewBox="0 0 28 28" fill="none" xmlns="http://www.w3.org/2000/svg">
<path d="M3.5 5.33333C3.5 3.67648 4.84315 2.33333 6.5 2.33333H18.5907C19.3863 2.33333 20.1494 2.6494 20.712 3.21201L23.6213 6.12132C24.1839 6.68393 24.5 7.44699 24.5 8.24264V22.6667C24.5 24.3235 23.1569 25.6667 21.5 25.6667H6.5C4.84315 25.6667 3.5 24.3235 3.5 22.6667V5.33333Z" fill="#292D36"/>
<path fill-rule="evenodd" clip-rule="evenodd" d="M8.16663 12.8333C8.16663 12.189 8.68896 11.6667 9.33329 11.6667H18.6666C19.311 11.6667 19.8333 12.189 19.8333 12.8333C19.8333 13.4777 19.311 14 18.6666 14H9.33329C8.68896 14 8.16663 13.4777 8.16663 12.8333Z" fill="#686B72"/>
<path fill-rule="evenodd" clip-rule="evenodd" d="M8.16663 17.5C8.16663 16.8557 8.68896 16.3333 9.33329 16.3333H14C14.6443 16.3333 15.1666 16.8557 15.1666 17.5C15.1666 18.1443 14.6443 18.6667 14 18.6667H9.33329C8.68896 18.6667 8.16663 18.1443 8.16663 17.5Z" fill="#686B72"/>
<path d="M20.6583 3.15829L23.675 6.17504C24.2032 6.70325 24.5 7.41966 24.5 8.16666H20.6666C19.5621 8.16666 18.6666 7.27123 18.6666 6.16666V2.33333C19.4136 2.33333 20.13 2.63008 20.6583 3.15829Z" fill="#686B72"/>
</svg>
