<svg width="28" height="28" viewBox="0 0 28 28" fill="none" xmlns="http://www.w3.org/2000/svg">
<path d="M3.5 5.33335C3.5 3.67649 4.84315 2.33334 6.5 2.33334H18.5907C19.3863 2.33334 20.1494 2.64941 20.712 3.21202L23.6213 6.12133C24.1839 6.68394 24.5 7.447 24.5 8.24265V22.6667C24.5 24.3235 23.1569 25.6667 21.5 25.6667H6.5C4.84315 25.6667 3.5 24.3235 3.5 22.6667V5.33335Z" fill="white"/>
<path fill-rule="evenodd" clip-rule="evenodd" d="M8.16666 12.8333C8.16666 12.189 8.68899 11.6667 9.33332 11.6667H18.6667C19.311 11.6667 19.8333 12.189 19.8333 12.8333C19.8333 13.4777 19.311 14 18.6667 14H9.33332C8.68899 14 8.16666 13.4777 8.16666 12.8333Z" fill="#FA784A"/>
<path fill-rule="evenodd" clip-rule="evenodd" d="M8.16666 17.5C8.16666 16.8556 8.68899 16.3333 9.33332 16.3333H14C14.6443 16.3333 15.1667 16.8556 15.1667 17.5C15.1667 18.1443 14.6443 18.6666 14 18.6666H9.33332C8.68899 18.6666 8.16666 18.1443 8.16666 17.5Z" fill="#FA784A"/>
<path d="M20.6583 3.1583L23.675 6.17505C24.2032 6.70326 24.5 7.41967 24.5 8.16668H20.6667C19.5621 8.16668 18.6667 7.27124 18.6667 6.16667V2.33334C19.4137 2.33334 20.1301 2.63009 20.6583 3.1583Z" fill="#FA784A"/>
</svg>
