<svg width="28" height="28" viewBox="0 0 28 28" fill="none" xmlns="http://www.w3.org/2000/svg">
<path d="M3.5 5.33333C3.5 3.67648 4.84315 2.33333 6.5 2.33333H18.5907C19.3863 2.33333 20.1494 2.6494 20.712 3.21201L23.6213 6.12132C24.1839 6.68393 24.5 7.44699 24.5 8.24264V22.6667C24.5 24.3235 23.1569 25.6667 21.5 25.6667H6.5C4.84315 25.6667 3.5 24.3235 3.5 22.6667V5.33333Z" fill="#EEF0F2"/>
<path fill-rule="evenodd" clip-rule="evenodd" d="M8.16675 12.8333C8.16675 12.189 8.68908 11.6667 9.33341 11.6667H18.6667C19.3111 11.6667 19.8334 12.189 19.8334 12.8333C19.8334 13.4777 19.3111 14 18.6667 14H9.33341C8.68908 14 8.16675 13.4777 8.16675 12.8333Z" fill="#B2B4B7"/>
<path fill-rule="evenodd" clip-rule="evenodd" d="M8.16675 17.5C8.16675 16.8557 8.68908 16.3333 9.33341 16.3333H14.0001C14.6444 16.3333 15.1667 16.8557 15.1667 17.5C15.1667 18.1443 14.6444 18.6667 14.0001 18.6667H9.33341C8.68908 18.6667 8.16675 18.1443 8.16675 17.5Z" fill="#B2B4B7"/>
<path d="M20.6584 3.15829L23.6751 6.17504C24.2033 6.70325 24.5001 7.41966 24.5001 8.16666H20.6667C19.5622 8.16666 18.6667 7.27123 18.6667 6.16666V2.33333C19.4138 2.33333 20.1302 2.63008 20.6584 3.15829Z" fill="#B2B4B7"/>
</svg>
