<svg width="28" height="28" viewBox="0 0 28 28" fill="none" xmlns="http://www.w3.org/2000/svg">
<path fill-rule="evenodd" clip-rule="evenodd" d="M14 4.66666C8.84532 4.66666 4.66665 8.84534 4.66665 14V15.1667H2.33331V14C2.33331 7.55667 7.55666 2.33333 14 2.33333C20.4433 2.33333 25.6666 7.55667 25.6666 14V15.1667H23.3333V14C23.3333 8.84534 19.1546 4.66666 14 4.66666Z" fill="#292D36"/>
<path d="M6.99998 14H2.33331V21C2.33331 22.933 3.90032 24.5 5.83331 24.5H6.99998C8.93298 24.5 10.5 22.933 10.5 21V17.5C10.5 15.567 8.93298 14 6.99998 14Z" fill="#686B72"/>
<path d="M21 14C19.067 14 17.5 15.567 17.5 17.5V21C17.5 22.933 19.067 24.5 21 24.5H22.1666C24.0996 24.5 25.6666 22.933 25.6666 21V14H21Z" fill="#686B72"/>
</svg>
