<svg width="28" height="28" viewBox="0 0 28 28" fill="none" xmlns="http://www.w3.org/2000/svg">
<path fill-rule="evenodd" clip-rule="evenodd" d="M14 4.66665C8.84534 4.66665 4.66667 8.84532 4.66667 14V15.1666H2.33333V14C2.33333 7.55666 7.55668 2.33331 14 2.33331C20.4433 2.33331 25.6667 7.55666 25.6667 14V15.1666H23.3333V14C23.3333 8.84532 19.1547 4.66665 14 4.66665Z" fill="#FDDDD1"/>
<path d="M7 14H2.33333V21C2.33333 22.933 3.90034 24.5 5.83333 24.5H7C8.933 24.5 10.5 22.933 10.5 21V17.5C10.5 15.567 8.933 14 7 14Z" fill="#FA784A"/>
<path d="M21 14C19.067 14 17.5 15.567 17.5 17.5V21C17.5 22.933 19.067 24.5 21 24.5H22.1667C24.0997 24.5 25.6667 22.933 25.6667 21V14H21Z" fill="#FA784A"/>
</svg>
