<svg width="28" height="28" viewBox="0 0 28 28" fill="none" xmlns="http://www.w3.org/2000/svg">
<path fill-rule="evenodd" clip-rule="evenodd" d="M14 4.66666C8.84538 4.66666 4.66671 8.84534 4.66671 14V15.1667H2.33337V14C2.33337 7.55667 7.55672 2.33333 14 2.33333C20.4434 2.33333 25.6667 7.55667 25.6667 14V15.1667H23.3334V14C23.3334 8.84534 19.1547 4.66666 14 4.66666Z" fill="#EEF0F2"/>
<path d="M7.00004 14H2.33337V21C2.33337 22.933 3.90038 24.5 5.83337 24.5H7.00004C8.93304 24.5 10.5 22.933 10.5 21V17.5C10.5 15.567 8.93304 14 7.00004 14Z" fill="#B2B4B7"/>
<path d="M21 14C19.067 14 17.5 15.567 17.5 17.5V21C17.5 22.933 19.067 24.5 21 24.5H22.1667C24.0997 24.5 25.6667 22.933 25.6667 21V14H21Z" fill="#B2B4B7"/>
</svg>
