<svg width="28" height="28" viewBox="0 0 28 28" fill="none" xmlns="http://www.w3.org/2000/svg">
<path d="M11.456 20.4037L8.16663 25.6667H19.8333L16.544 20.4037C15.369 18.5237 12.631 18.5237 11.456 20.4037Z" fill="#686B72"/>
<path d="M19.8333 8.16667H8.16663L10.5 12.8333H17.5L19.8333 8.16667Z" fill="#686B72"/>
<path fill-rule="evenodd" clip-rule="evenodd" d="M4.66663 3.49999C4.66663 2.85566 5.18896 2.33333 5.83329 2.33333H22.1666C22.811 2.33333 23.3333 2.85566 23.3333 3.49999C23.3333 4.14433 22.811 4.66666 22.1666 4.66666V5.34076C22.1666 7.18339 21.6212 8.98479 20.5991 10.518L18.2777 14L20.5991 17.482C21.6212 19.0152 22.1666 20.8166 22.1666 22.6592V23.3333C22.811 23.3333 23.3333 23.8557 23.3333 24.5C23.3333 25.1443 22.811 25.6667 22.1666 25.6667H5.83329C5.18896 25.6667 4.66663 25.1443 4.66663 24.5C4.66663 23.8557 5.18896 23.3333 5.83329 23.3333V22.6592C5.83329 20.8166 6.37871 19.0152 7.40082 17.482L9.72218 14L7.40082 10.518C6.37871 8.98479 5.83329 7.18339 5.83329 5.34076V4.66666C5.18896 4.66666 4.66663 4.14433 4.66663 3.49999ZM8.16663 23.3333H19.8333V22.6592C19.8333 21.2773 19.4242 19.9262 18.6576 18.7763L16.2512 15.1667H11.7487L9.34227 18.7763C8.57569 19.9262 8.16663 21.2773 8.16663 22.6592V23.3333ZM8.16663 4.66666H19.8333V5.34076C19.8333 6.72273 19.4242 8.07378 18.6576 9.22366L16.2512 12.8333H11.7487L9.34227 9.22366C8.57569 8.07378 8.16663 6.72273 8.16663 5.34076V4.66666Z" fill="#292D36"/>
</svg>
