<svg width="28" height="28" viewBox="0 0 28 28" fill="none" xmlns="http://www.w3.org/2000/svg">
<path d="M11.4561 20.4037L8.16675 25.6667H19.8334L16.5441 20.4037C15.3691 18.5237 12.6311 18.5237 11.4561 20.4037Z" fill="#B2B4B7"/>
<path d="M19.8334 8.16667H8.16675L10.5001 12.8333H17.5001L19.8334 8.16667Z" fill="#B2B4B7"/>
<path fill-rule="evenodd" clip-rule="evenodd" d="M4.66675 3.49999C4.66675 2.85566 5.18908 2.33333 5.83341 2.33333H22.1667C22.8111 2.33333 23.3334 2.85566 23.3334 3.49999C23.3334 4.14433 22.8111 4.66666 22.1667 4.66666V5.34076C22.1667 7.18339 21.6213 8.98479 20.5992 10.518L18.2779 14L20.5992 17.482C21.6213 19.0152 22.1667 20.8166 22.1667 22.6592V23.3333C22.8111 23.3333 23.3334 23.8557 23.3334 24.5C23.3334 25.1443 22.8111 25.6667 22.1667 25.6667H5.83341C5.18908 25.6667 4.66675 25.1443 4.66675 24.5C4.66675 23.8557 5.18908 23.3333 5.83341 23.3333V22.6592C5.83341 20.8166 6.37884 19.0152 7.40094 17.482L9.7223 14L7.40094 10.518C6.37884 8.98479 5.83341 7.18339 5.83341 5.34076V4.66666C5.18908 4.66666 4.66675 4.14433 4.66675 3.49999ZM8.16675 23.3333H19.8334V22.6592C19.8334 21.2773 19.4243 19.9262 18.6578 18.7763L16.2513 15.1667H11.7488L9.3424 18.7763C8.57581 19.9262 8.16675 21.2773 8.16675 22.6592V23.3333ZM8.16675 4.66666H19.8334V5.34076C19.8334 6.72273 19.4243 8.07378 18.6578 9.22366L16.2513 12.8333H11.7488L9.3424 9.22366C8.57581 8.07378 8.16675 6.72273 8.16675 5.34076V4.66666Z" fill="#EEF0F2"/>
</svg>
