<svg width="28" height="28" viewBox="0 0 28 28" fill="none" xmlns="http://www.w3.org/2000/svg">
<path d="M9.45706 5.51246C9.96492 5.24005 10.3798 4.80869 10.562 4.26196L11.1379 2.53422C11.4101 1.71753 12.1744 1.16667 13.0353 1.16667H14.9647C15.8256 1.16667 16.5899 1.71753 16.8621 2.53422L17.438 4.26196C17.6203 4.80869 18.0351 5.24005 18.543 5.51246C18.7242 5.60967 18.902 5.71252 19.076 5.82077C19.566 6.12548 20.1477 6.26951 20.7129 6.15383L22.4986 5.78842C23.342 5.61584 24.2012 6.00229 24.6316 6.74782L25.5963 8.41878C26.0268 9.16431 25.9318 10.1016 25.3607 10.7457L24.1503 12.1107C23.7684 12.5413 23.6016 13.1155 23.6195 13.6909C23.6258 13.8967 23.6258 14.1032 23.6195 14.3091C23.6016 14.8844 23.7684 15.4586 24.1503 15.8893L25.3607 17.2542C25.9318 17.8983 26.0268 18.8356 25.5963 19.5811L24.6316 21.2521C24.2012 21.9976 23.342 22.3841 22.4986 22.2115L20.713 21.8461C20.1477 21.7304 19.5661 21.8745 19.0761 22.1792C18.902 22.2875 18.7242 22.3903 18.543 22.4876C18.0351 22.76 17.6203 23.1913 17.438 23.7381L16.8621 25.4658C16.5899 26.2825 15.8256 26.8333 14.9647 26.8333H13.0353C12.1744 26.8333 11.4101 26.2825 11.1379 25.4658L10.562 23.7381C10.3798 23.1913 9.96492 22.76 9.45706 22.4876C9.27578 22.3903 9.09799 22.2875 8.9239 22.1792C8.43393 21.8745 7.85226 21.7304 7.28698 21.8461L5.50136 22.2115C4.65798 22.3841 3.79878 21.9976 3.36835 21.2521L2.40362 19.5811C1.97319 18.8356 2.06811 17.8983 2.63927 17.2542L3.84967 15.8892C4.23158 15.4585 4.39839 14.8844 4.38056 14.309C4.37417 14.1032 4.37418 13.8967 4.38056 13.6909C4.3984 13.1156 4.23159 12.5414 3.84968 12.1107L2.63927 10.7457C2.06811 10.1016 1.97319 9.16431 2.40362 8.41878L3.36835 6.74782C3.79878 6.00229 4.65798 5.61584 5.50136 5.78842L7.28707 6.15384C7.85235 6.26951 8.43401 6.12549 8.92398 5.82077C9.09804 5.71252 9.27581 5.60967 9.45706 5.51246Z" fill="#FDDDD1"/>
<path fill-rule="evenodd" clip-rule="evenodd" d="M14 17.5C15.933 17.5 17.5 15.933 17.5 14C17.5 12.067 15.933 10.5 14 10.5C12.067 10.5 10.5 12.067 10.5 14C10.5 15.933 12.067 17.5 14 17.5Z" fill="#FA784A"/>
</svg>
