<svg width="20" height="20" viewBox="0 0 20 20" fill="none" xmlns="http://www.w3.org/2000/svg">
<path fill-rule="evenodd" clip-rule="evenodd" d="M18 10C18 14.0166 14.4183 17.2727 10 17.2727C5.58172 17.2727 2 14.0166 2 10C2 5.98341 5.58172 2.72729 10 2.72729C14.4183 2.72729 18 5.98341 18 10ZM6.71486 7.95663C6.42838 7.6962 6.42838 7.27396 6.71486 7.01353C7.00133 6.7531 7.4658 6.7531 7.75227 7.01353L10 9.05692L12.2477 7.01353C12.5342 6.7531 12.9987 6.7531 13.2851 7.01353C13.5716 7.27396 13.5716 7.6962 13.2851 7.95663L11.0374 10L13.2851 12.0434C13.5716 12.3038 13.5716 12.7261 13.2851 12.9865C12.9987 13.2469 12.5342 13.2469 12.2477 12.9865L10 10.9431L7.75227 12.9865C7.4658 13.2469 7.00133 13.2469 6.71486 12.9865C6.42838 12.7261 6.42838 12.3038 6.71486 12.0434L8.96259 10L6.71486 7.95663Z" fill="#C7C7CC"/>
</svg>
