<svg width="187" height="287" viewBox="0 0 187 287" fill="none" xmlns="http://www.w3.org/2000/svg">
<g opacity="0.3" clip-path="url(#clip0)">
<path d="M201.247 287H85.753C84.7617 287 83.7703 286.504 82.7789 286.009L0.991364 204.221C0.495682 203.725 0 202.734 0 201.247V85.753C0 84.7617 0.495682 83.7703 0.991364 82.7789L82.7789 0.991364C83.7703 0.495682 84.7617 0 85.753 0H201.743C202.734 0 203.725 0.495682 204.717 0.991364L286.504 82.7789C287 83.2746 287.496 84.266 287.496 85.753V201.247C287.496 202.238 287 203.23 286.504 204.221L204.221 286.009C203.725 287 202.734 287 201.247 287ZM87.2401 279.565H199.76L279.069 199.76V87.2401L199.76 7.43523H87.2401L7.93092 87.2401V199.76L87.2401 279.565Z" fill="#292D36"/>
<path d="M143.748 287C142.756 287 141.765 286.504 141.269 286.009L82.7788 237.927C81.7874 237.432 81.2917 235.945 81.2917 234.953V52.0467C81.2917 51.0553 81.7874 49.5682 82.7788 49.0726L141.269 0.991387C142.756 2.26945e-05 144.739 2.26945e-05 146.226 0.991387L204.717 49.0726C205.708 49.5682 206.204 51.0553 206.204 52.0467V234.953C206.204 235.945 205.708 237.432 204.717 237.927L146.226 286.009C145.235 287 144.243 287 143.748 287ZM89.2227 232.971L143.748 278.078L198.273 232.971V54.0294L143.748 8.9223L89.2227 54.0294V232.971Z" fill="#292D36"/>
<path d="M234.953 205.708H52.0466C51.0552 205.708 49.5682 205.212 49.0725 204.221L0.991326 146.226C-3.83407e-05 144.739 -3.83407e-05 142.757 0.991326 141.269L49.0725 82.779C49.5682 81.7876 51.0552 81.2919 52.0466 81.2919H234.953C235.945 81.2919 237.432 81.7876 237.927 82.779L286.009 141.269C287 142.757 287 144.739 286.009 146.226L237.927 204.221C237.432 205.212 236.44 205.708 234.953 205.708ZM54.0293 198.273H232.971L278.078 143.748L232.971 89.2228H54.0293L8.92224 143.748L54.0293 198.273Z" fill="#292D36"/>
<path d="M120.451 253.294C119.955 253.294 119.955 253.294 120.451 253.294L44.6113 246.354C42.6286 246.354 41.1415 244.867 41.1415 242.884L33.7063 167.541C33.7063 166.549 34.202 165.062 34.6977 164.567L164.071 34.6978C165.062 33.7064 166.053 33.7064 167.045 33.7064L242.884 41.1416C244.867 41.1416 246.354 42.6287 246.354 44.6114L253.294 119.955C253.294 120.946 252.798 122.434 252.302 122.929L122.929 252.302C122.433 252.798 121.442 253.294 120.451 253.294ZM48.5768 238.919L118.964 245.363L245.363 118.964L238.919 48.5769L168.532 41.6373L41.6372 168.532L48.5768 238.919Z" fill="#292D36"/>
<path d="M167.045 253.294C166.053 253.294 165.062 252.798 164.071 252.302L34.6977 122.929C33.7063 121.938 33.7063 120.946 33.7063 119.955L41.1415 44.6114C41.1415 42.6287 42.6286 41.1416 44.6113 41.1416L119.955 34.2021C120.946 34.2021 122.433 34.6978 122.929 35.1935L252.302 164.567C253.294 165.558 253.294 166.549 253.294 167.541L246.354 242.884C246.354 244.867 244.867 246.354 242.884 246.354L167.045 253.294ZM41.6372 118.964L168.532 245.363L238.919 238.919L245.363 168.532L118.964 41.6373L48.5768 48.5769L41.6372 118.964Z" fill="#292D36"/>
</g>
<defs>
<clipPath id="clip0">
<rect width="287" height="287" fill="white"/>
</clipPath>
</defs>
</svg>
