<svg width="34" height="34" viewBox="0 0 34 34" fill="none" xmlns="http://www.w3.org/2000/svg">
<path d="M17.7391 34C17.6218 34 17.5044 33.9412 17.4458 33.8825L10.5238 28.1815C10.4064 28.1227 10.3478 27.9464 10.3478 27.8289V6.14175C10.3478 6.0242 10.4064 5.84788 10.5238 5.78911L17.4458 0.088159C17.6218 -0.0293863 17.8564 -0.0293863 18.0324 0.088159L24.9544 5.78911C25.0717 5.84788 25.1304 6.0242 25.1304 6.14175V27.8289C25.1304 27.9464 25.0717 28.1227 24.9544 28.1815L18.0324 33.8825C17.9151 34 17.7977 34 17.7391 34ZM11.2864 27.5938L17.7391 32.9421L24.1918 27.5938V6.37684L17.7391 1.02852L11.2864 6.37684V27.5938Z" fill="#777A80"/>
<path d="M27.8529 25.1304H6.14706C6.02941 25.1304 5.85294 25.0716 5.79412 24.9538L0.0882353 18.0631C-0.0294118 17.8864 -0.0294118 17.6508 0.0882353 17.4741L5.79412 10.5245C5.85294 10.4067 6.02941 10.3478 6.14706 10.3478H27.8529C27.9706 10.3478 28.1471 10.4067 28.2059 10.5245L33.9118 17.4741C34.0294 17.6508 34.0294 17.8864 33.9118 18.0631L28.2059 24.9538C28.1471 25.0716 28.0294 25.1304 27.8529 25.1304ZM6.38235 24.247H27.6176L32.9706 17.7686L27.6176 11.2902H6.38235L1.02941 17.7686L6.38235 24.247Z" fill="#777A80"/>
<path d="M14.3621 29.5652C14.3053 29.5652 14.3053 29.5652 14.3621 29.5652L5.6827 28.771C5.45579 28.771 5.28561 28.6008 5.28561 28.3739L4.43469 19.7513C4.43469 19.6378 4.49142 19.4677 4.54815 19.4109L19.3541 4.54824C19.4676 4.43478 19.581 4.43478 19.6945 4.43478L28.3738 5.2857C28.6008 5.2857 28.7709 5.45589 28.7709 5.6828L29.5651 14.3054C29.5651 14.4189 29.5084 14.5891 29.4517 14.6458L14.6457 29.4518C14.589 29.5085 14.4755 29.5652 14.3621 29.5652ZM6.13653 27.9201L14.1919 28.6576L28.6575 14.192L27.92 6.13662L19.8647 5.34243L5.34234 19.8648L6.13653 27.9201Z" fill="#777A80"/>
<path d="M19.6945 29.5652C19.581 29.5652 19.4676 29.5084 19.3541 29.4515L4.54815 14.612C4.43469 14.4983 4.43469 14.3846 4.43469 14.2709L5.28561 5.62876C5.28561 5.40134 5.45579 5.23077 5.6827 5.23077L14.3053 4.43478C14.4188 4.43478 14.589 4.49164 14.6457 4.5485L29.4517 19.388C29.5651 19.5017 29.5651 19.6154 29.5651 19.7291L28.7709 28.3712C28.7709 28.5987 28.6008 28.7692 28.3738 28.7692L19.6945 29.5652ZM5.34234 14.1572L19.8647 28.6555L27.92 27.9164L28.6575 19.8428L14.1919 5.28763L6.13653 6.08361L5.34234 14.1572Z" fill="#777A80"/>
</svg>
