<svg width="244" height="44" viewBox="0 0 244 44" fill="none" xmlns="http://www.w3.org/2000/svg">
<path d="M27.2831 28.904C28.5311 29.144 32.9951 29.288 34.4351 29.048C35.8271 28.904 36.7391 27.416 37.4591 25.928C34.9631 26.264 32.6591 26.312 29.9711 26.264C27.2831 26.264 25.1711 26.168 24.6431 23.384C23.7791 18.44 24.6911 11.144 26.0831 4.904L23.3951 5.816C23.0591 6.776 22.8671 7.496 22.6751 8.6C16.5791 10.52 5.05912 13.064 1.74712 19.592C0.643122 21.704 0.835122 26.84 3.57112 28.904C8.61112 32.984 20.1791 30.152 22.2911 22.52C22.5311 25.112 23.9711 28.376 27.2831 28.904ZM21.8591 17.96C20.7071 23.576 16.0031 26.552 11.0111 27.176C7.02712 27.656 2.89912 26.984 2.75512 23.624C2.37112 16.136 17.3471 13.256 22.2911 12.104L21.8591 17.96ZM34.863 3.32C34.815 10.664 34.383 16.952 34.623 23.144C34.959 25.256 35.247 26.504 36.207 27.848C38.511 30.152 44.175 30.008 46.431 29.144C48.927 28.232 49.503 25.112 49.023 23.864C48.831 23.432 48.735 23.192 48.495 23.768C46.623 27.56 38.703 27.944 36.783 24.968C36.399 23.288 36.975 10.904 37.167 9.464C37.311 8.888 37.359 8.36 37.791 6.488L34.863 3.32ZM52.3785 29.624C57.4185 30.152 60.8745 28.664 61.6425 27.224C62.2185 26.072 61.7865 24.872 61.2585 24.152C61.1145 24.008 60.7305 23.912 60.8745 24.44C60.6345 26.264 57.1785 26.744 55.3065 26.888C53.3385 27.032 51.4665 26.792 50.4585 26.264V20.648C50.4585 19.064 50.8905 18.632 51.2265 18.104L47.9145 16.328V25.4C48.4425 27.752 50.6505 29.384 52.3785 29.624ZM48.1065 12.344L49.7865 14.36L51.5625 12.488L49.8345 10.472L48.1065 12.344ZM75.1387 20.264C76.2427 20.888 74.9467 17.672 74.2267 17.336C72.4507 16.424 68.9467 18.296 67.8907 19.64C66.8827 20.744 66.5467 23.192 66.7867 24.824C67.1707 27.032 72.4027 26.792 73.9387 27.56C72.1627 29.72 66.6907 30.728 63.7627 29.72C60.4987 28.568 61.5547 23.576 62.8507 22.424L62.1787 21.656C60.6907 22.76 59.6827 25.256 59.6827 27.416C59.6827 29.672 60.3547 31.64 62.8027 32.648C65.7787 33.944 71.8747 32.504 74.2747 30.344C75.1867 29 76.0027 27.272 75.4747 25.544C74.8027 23.384 68.4187 23.96 68.4187 22.712C68.4187 20.648 73.8907 19.496 75.1387 20.264ZM63.7147 36.728L65.4427 38.552L67.1707 36.776L65.3947 34.904L63.7147 36.728ZM67.6027 36.776L69.3307 38.6L71.0587 36.776L69.2827 34.952L67.6027 36.776ZM80.8159 4.376C80.8159 4.712 80.8159 5.192 80.7679 5.912C80.3839 12.2 79.8079 23.672 80.0479 28.28C80.0959 29 81.0079 30.056 81.5839 30.584L81.8719 30.536C81.8719 29.384 81.9199 27.56 81.9679 25.784C82.5439 23.144 84.7039 21.848 87.9199 21.512C89.5999 21.368 92.8639 21.896 93.4879 23.192L92.2399 26.312C92.3839 26.936 93.2479 28.232 94.2079 28.952C95.7439 28.952 99.8239 29.096 102.032 28.952C102.992 28.952 104.576 27.032 104.72 26.072C102.656 26.312 96.8959 26.312 95.0239 26.168C95.1679 25.736 95.4079 24.68 95.4079 24.248C95.4079 22.76 94.6879 21.8 93.9679 20.6C92.4319 18.728 90.0799 18.104 87.5359 18.44C84.9919 18.776 83.1199 19.592 81.9679 20.936C82.4959 12.104 82.5919 12.488 82.8319 11.288C83.0239 9.992 83.2159 8.984 83.4559 8.072L80.8159 4.376ZM107.796 16.376C104.148 16.376 102.036 22.232 102.804 25.592C103.188 26.984 104.1 28.856 106.548 29.096C110.148 29.48 115.092 29.24 116.772 29.096C118.404 28.856 121.524 26.072 119.892 26.216C117.348 26.408 105.924 26.936 104.964 26.168C104.532 25.544 104.436 24.824 104.628 23.528C106.164 23.912 108.468 24.44 110.004 23.432C111.156 22.664 111.444 21.368 111.252 19.88C111.012 18.536 109.62 16.376 107.796 16.376ZM105.396 21.128C105.732 20.168 106.788 19.064 107.988 19.064C108.708 19.064 109.956 19.592 110.1 20.312C110.1 20.648 109.86 20.888 109.38 21.128C108.276 21.512 106.548 21.464 105.396 21.128ZM107.172 12.296L108.324 14.36L110.628 12.488L109.476 10.424L107.172 12.296ZM121.04 28.136C120.8 28.04 120.08 20.408 120.704 19.4C121.088 18.776 125.12 18.824 126.032 19.064C127.232 19.448 127.808 20.312 127.808 21.608C127.808 21.944 128.048 21.896 128.24 21.656C129.248 19.928 129.248 16.952 126.848 16.328C125.888 16.088 122.96 16.184 122.192 16.328C121.088 16.472 118.976 17.864 118.592 19.736C118.208 21.416 118.064 23.96 118.064 28.52C118.016 29.048 118.016 29.384 118.016 29.624L121.04 28.136ZM161.271 32.456C155.223 32.648 152.151 14.696 149.271 6.872L145.383 5.144C145.911 6.488 146.631 8.408 146.631 11.24C146.631 15.128 142.359 25.496 142.935 29.72C143.079 31.832 144.375 32.792 148.695 33.56C148.743 33.464 148.743 33.368 148.743 33.224C147.255 32.312 146.823 31.784 146.487 30.68C145.719 27.176 148.743 16.376 148.743 14.456V12.536C150.039 18.392 153.783 31.448 157.911 33.128C160.503 34.232 164.391 33.656 166.407 30.776C169.095 26.936 169.527 16.136 169.143 11.72C168.999 9.944 168.711 7.88 168.375 6.2C167.271 4.472 166.695 3.272 165.207 1.16C165.063 1.304 164.967 1.256 164.919 1.304C165.111 2.456 165.831 5.384 166.167 10.376C166.551 17.288 165.255 32.264 161.271 32.456ZM181.197 28.04C181.437 27.704 181.965 26.744 182.205 26.024C182.685 27.08 184.365 28.76 185.949 29C187.245 29.24 188.637 29.24 190.173 29.048C191.565 28.904 192.429 27.56 193.149 26.072C191.613 26.216 189.981 26.216 188.589 26.216C186.141 26.216 184.461 25.736 184.413 24.056C184.413 20.984 184.653 18.44 184.605 15.224L181.965 17.768V18.872C179.277 19.64 175.437 21.08 173.661 22.856C172.749 23.96 172.749 25.4 172.893 26.6C173.085 28.856 180.045 29.432 181.197 28.04ZM181.965 20.792C181.917 22.28 181.821 24.056 181.965 25.4V25.496C178.941 26.024 175.581 25.736 175.341 24.968C174.957 23.816 180.573 21.032 181.965 20.792ZM204.794 14.36C202.01 15.512 199.61 17.72 197.546 25.4C196.778 22.472 195.626 20.072 194.042 18.2C192.698 16.328 191.018 15.176 189.434 14.456L189.146 18.488C193.562 20.984 196.058 26.024 197.066 30.536H197.834C198.266 28.088 199.082 25.496 200.186 23C201.194 20.552 202.634 18.728 204.554 17.528L204.794 14.36ZM213.262 28.424C214.606 26.456 215.95 24.2 214.894 21.848C213.694 19.736 212.59 19.4 210.526 17.816C209.95 17.384 209.326 16.28 209.374 15.944L208.174 17.288C207.742 17.912 207.502 18.536 207.502 19.112C207.502 19.256 207.55 19.4 207.598 19.544C207.742 19.784 207.79 19.832 207.934 19.976C206.878 21.8 205.438 23.672 205.294 25.976C205.15 27.704 206.302 29.48 208.318 29.624C210.094 29.768 211.534 29.192 213.262 28.424ZM213.694 25.304C211.534 26.6 209.374 26.504 208.03 25.976C206.014 25.064 207.886 21.752 208.846 20.504C210.574 21.416 213.454 23.096 213.694 25.304ZM210.862 11.912L209.182 13.64L210.67 15.416L212.35 13.64L210.862 11.912ZM207.454 11.912L205.774 13.688L207.31 15.464L208.942 13.688L207.454 11.912ZM221.878 29.624C226.918 30.152 230.374 28.664 231.142 27.224C231.718 26.072 231.286 24.872 230.758 24.152C230.614 24.008 230.23 23.912 230.374 24.44C230.134 26.264 226.678 26.744 224.806 26.888C222.838 27.032 220.966 26.792 219.958 26.264V20.648C219.958 19.064 220.39 18.632 220.726 18.104L217.414 16.328V25.4C217.942 27.752 220.15 29.384 221.878 29.624ZM217.606 12.344L219.286 14.36L221.062 12.488L219.334 10.472L217.606 12.344ZM241.149 26.168C241.389 29.48 241.485 32.744 241.485 37.304C240.381 38.984 239.085 39.992 235.869 39.992C230.445 39.992 228.765 37.064 230.061 31.352L229.725 31.304C226.317 36.872 227.853 43.064 235.245 43.064C239.949 43.064 243.453 39.128 243.453 34.328C243.453 29 243.117 23.816 243.117 17.48C243.117 16.568 243.117 15.896 243.069 15.464L240.285 18.92C240.429 19.256 240.477 19.496 240.621 20.024C240.621 22.856 240.909 23.72 240.861 24.296C239.853 25.592 237.933 26.024 236.445 26.024C231.261 26.024 230.829 21.56 232.989 18.104L232.749 18.008C230.205 18.92 229.341 22.616 230.109 25.448C230.829 27.992 232.989 29.384 235.677 29.528C238.509 29.48 239.853 28.424 241.149 26.168Z" fill="white"/>
<path d="M27.2831 28.904L27.3398 28.6092L27.3304 28.6077L27.2831 28.904ZM34.4351 29.048L34.4043 28.7496L34.395 28.7505L34.3858 28.7521L34.4351 29.048ZM37.4591 25.928L37.7292 26.0587L37.9723 25.5562L37.4191 25.6307L37.4591 25.928ZM29.9711 26.264L29.9765 25.964H29.9711V26.264ZM24.6431 23.384L24.3476 23.4356L24.3484 23.4399L24.6431 23.384ZM26.0831 4.904L26.3759 4.96932L26.4921 4.44843L25.9867 4.6199L26.0831 4.904ZM23.3951 5.816L23.2987 5.53191L23.1603 5.57889L23.112 5.71689L23.3951 5.816ZM22.6751 8.6L22.7652 8.88614L22.9394 8.83129L22.9707 8.6514L22.6751 8.6ZM1.74712 19.592L2.01301 19.731L2.01466 19.7277L1.74712 19.592ZM3.57112 28.904L3.75999 28.6707L3.75179 28.6645L3.57112 28.904ZM22.2911 22.52L22.5898 22.4923L22.002 22.44L22.2911 22.52ZM21.8591 17.96L22.153 18.0203L22.1569 18.0013L22.1583 17.9821L21.8591 17.96ZM11.0111 27.176L11.047 27.4739L11.0483 27.4737L11.0111 27.176ZM2.75512 23.624L3.05486 23.6112L3.05473 23.6086L2.75512 23.624ZM22.2911 12.104L22.5903 12.1261L22.6203 11.7193L22.223 11.8118L22.2911 12.104ZM27.2265 29.1986C27.878 29.3239 29.3293 29.4199 30.7797 29.4559C32.2287 29.4918 33.7322 29.4693 34.4844 29.3439L34.3858 28.7521C33.6981 28.8667 32.2496 28.8922 30.7946 28.8561C29.341 28.8201 27.9362 28.7241 27.3398 28.6094L27.2265 29.1986ZM34.466 29.3464C35.2679 29.2635 35.9083 28.7943 36.4272 28.1868C36.9452 27.5804 37.3668 26.8077 37.7292 26.0587L37.1891 25.7973C36.8315 26.5363 36.437 27.2516 35.971 27.7972C35.5059 28.3417 34.9944 28.6885 34.4043 28.7496L34.466 29.3464ZM37.4191 25.6307C34.9447 25.9638 32.6578 26.0119 29.9765 25.964L29.9658 26.564C32.6605 26.6121 34.9816 26.5642 37.4991 26.2253L37.4191 25.6307ZM29.9711 25.964C28.6137 25.964 27.475 25.9361 26.6085 25.5895C26.1848 25.42 25.8333 25.1762 25.5564 24.8233C25.2783 24.4689 25.0631 23.9885 24.9379 23.3281L24.3484 23.4399C24.4871 24.1715 24.734 24.7471 25.0844 25.1937C25.436 25.6418 25.8794 25.944 26.3857 26.1465C27.3792 26.5439 28.6406 26.564 29.9711 26.564V25.964ZM24.9386 23.3324C24.0854 18.4497 24.9855 11.2024 26.3759 4.96932L25.7903 4.83868C24.3968 11.0856 23.4729 18.4303 24.3476 23.4356L24.9386 23.3324ZM25.9867 4.6199L23.2987 5.53191L23.4915 6.10009L26.1795 5.18809L25.9867 4.6199ZM23.112 5.71689C22.7706 6.69235 22.5744 7.42831 22.3796 8.5486L22.9707 8.6514C23.1599 7.56369 23.3477 6.85964 23.6783 5.9151L23.112 5.71689ZM22.585 8.31386C19.56 9.26661 15.124 10.3923 11.0516 12.0911C6.98571 13.7873 3.18748 16.09 1.47958 19.4563L2.01466 19.7277C3.61877 16.566 7.23654 14.3327 11.2826 12.6449C15.3222 10.9597 19.6942 9.85339 22.7652 8.88614L22.585 8.31386ZM1.48125 19.453C0.89043 20.5833 0.664856 22.4646 0.922001 24.3075C1.17941 26.1522 1.93261 28.0437 3.39045 29.1435L3.75179 28.6645C2.47364 27.7003 1.76283 25.9918 1.51624 24.2245C1.26939 22.4554 1.49981 20.7127 2.01299 19.731L1.48125 19.453ZM3.38236 29.1372C6.00854 31.2631 10.2772 31.5592 14.1165 30.391C17.9631 29.2205 21.4878 26.5477 22.5803 22.6L22.002 22.44C20.9824 26.1243 17.6671 28.6835 13.9418 29.817C10.2091 30.9528 6.1737 30.6249 3.75988 28.6708L3.38236 29.1372ZM21.9924 22.5477C22.2366 25.1848 23.7153 28.639 27.2359 29.2003L27.3304 28.6077C24.2269 28.113 22.8257 25.0392 22.5898 22.4923L21.9924 22.5477ZM21.5652 17.8997C20.4467 23.3527 15.8804 26.265 10.9739 26.8783L11.0483 27.4737C16.1259 26.839 20.9676 23.7993 22.153 18.0203L21.5652 17.8997ZM10.9752 26.8782C9.00343 27.1157 7.02689 27.0632 5.53997 26.5561C4.79925 26.3034 4.19529 25.9431 3.76981 25.4647C3.34824 24.9906 3.08802 24.3853 3.05485 23.6112L2.4554 23.6368C2.49422 24.5427 2.804 25.2814 3.32143 25.8633C3.83496 26.4409 4.53899 26.8486 5.34628 27.1239C6.95536 27.6728 9.03481 27.7163 11.047 27.4738L10.9752 26.8782ZM3.05473 23.6086C2.9646 21.8511 3.77068 20.347 5.1558 19.0456C6.54529 17.7401 8.4982 16.6588 10.6406 15.7649C14.9256 13.977 19.8744 12.9751 22.3592 12.3962L22.223 11.8118C19.7638 12.3849 14.7527 13.399 10.4096 15.2111C8.23804 16.1172 6.20996 17.2319 4.74495 18.6084C3.27556 19.989 2.35365 21.6529 2.45552 23.6394L3.05473 23.6086ZM21.9919 12.0819L21.5599 17.9379L22.1583 17.9821L22.5903 12.1261L21.9919 12.0819ZM34.863 3.32L35.0833 3.11638L34.568 2.55879L34.563 3.31804L34.863 3.32ZM34.623 23.144L34.3232 23.1556L34.3239 23.1735L34.3267 23.1911L34.623 23.144ZM36.207 27.848L35.9629 28.0224L35.9773 28.0426L35.9949 28.0601L36.207 27.848ZM46.431 29.144L46.328 28.8622L46.3237 28.8638L46.431 29.144ZM49.023 23.864L49.303 23.7563L49.3002 23.7492L49.2971 23.7422L49.023 23.864ZM48.495 23.768L48.764 23.9008L48.7682 23.8922L48.7719 23.8834L48.495 23.768ZM36.783 24.968L36.4905 25.0348L36.5023 25.0863L36.5309 25.1306L36.783 24.968ZM37.167 9.464L36.876 9.39124L36.8719 9.40762L36.8696 9.42435L37.167 9.464ZM37.791 6.488L38.0833 6.55546L38.119 6.40088L38.0113 6.28438L37.791 6.488ZM34.563 3.31804C34.5152 10.6344 34.083 16.9578 34.3232 23.1556L34.9228 23.1324C34.683 16.9462 35.1148 10.6936 35.163 3.32196L34.563 3.31804ZM34.3267 23.1911C34.6636 25.3087 34.9594 26.6175 35.9629 28.0224L36.4511 27.6736C35.5346 26.3905 35.2544 25.2033 34.9193 23.0969L34.3267 23.1911ZM35.9949 28.0601C37.2254 29.2907 39.3094 29.8378 41.3153 29.9832C43.3297 30.1293 45.3568 29.8766 46.5383 29.4242L46.3237 28.8638C45.2492 29.2754 43.3163 29.5267 41.3587 29.3848C39.3926 29.2422 37.4926 28.7093 36.4191 27.6359L35.9949 28.0601ZM46.534 29.4258C47.8858 28.9319 48.7061 27.8431 49.1237 26.7359C49.5366 25.6411 49.5774 24.4697 49.303 23.7563L48.743 23.9717C48.9486 24.5063 48.9414 25.5189 48.5623 26.5241C48.1879 27.5169 47.4722 28.4441 46.328 28.8622L46.534 29.4258ZM49.2971 23.7422C49.2515 23.6395 49.204 23.5306 49.1577 23.4442C49.1341 23.4 49.106 23.3525 49.0728 23.3092C49.0414 23.2683 48.9917 23.2129 48.9192 23.1739C48.8364 23.1293 48.7333 23.1119 48.6275 23.145C48.5342 23.1741 48.4688 23.2332 48.427 23.2805C48.346 23.3721 48.2795 23.5052 48.2181 23.6526L48.7719 23.8834C48.7994 23.8174 48.8228 23.7682 48.8422 23.7324C48.8624 23.6953 48.8742 23.6805 48.8765 23.678C48.8804 23.6735 48.8582 23.7015 48.8063 23.7177C48.7784 23.7264 48.7463 23.7302 48.7128 23.7263C48.68 23.7225 48.6536 23.7123 48.6348 23.7021C48.6167 23.6924 48.6054 23.6827 48.6007 23.6782C48.5958 23.6736 48.5946 23.6717 48.5969 23.6746C48.6021 23.6814 48.6126 23.6972 48.6288 23.7273C48.6444 23.7566 48.6619 23.7928 48.6824 23.8373C48.7029 23.882 48.7243 23.9306 48.7488 23.9858L49.2971 23.7422ZM48.226 23.6352C47.3599 25.3896 45.0473 26.4122 42.6329 26.607C41.4375 26.7034 40.2481 26.5929 39.2486 26.2827C38.2451 25.9713 37.4632 25.4689 37.0351 24.8054L36.5309 25.1306C37.0628 25.9551 37.9908 26.5207 39.0708 26.8558C40.1549 27.1921 41.4225 27.3066 42.6811 27.205C45.1746 27.0038 47.7581 25.9384 48.764 23.9008L48.226 23.6352ZM37.0755 24.9012C37.0344 24.7216 37.0018 24.3704 36.9811 23.8662C36.9607 23.3701 36.9525 22.7477 36.954 22.0399C36.957 20.6247 36.9989 18.8778 37.0588 17.1363C37.179 13.6447 37.3708 10.2057 37.4644 9.50365L36.8696 9.42435C36.7712 10.1623 36.579 13.6353 36.4592 17.1157C36.3991 18.8602 36.357 20.6143 36.354 22.0386C36.3525 22.7506 36.3607 23.3825 36.3816 23.8908C36.4022 24.3911 36.4356 24.7944 36.4905 25.0348L37.0755 24.9012ZM37.458 9.53676C37.5327 9.23818 37.583 8.9495 37.6656 8.5185C37.749 8.08362 37.8683 7.48731 38.0833 6.55546L37.4987 6.42054C37.2817 7.36068 37.161 7.96438 37.0764 8.40549C36.991 8.8505 36.9453 9.11382 36.876 9.39124L37.458 9.53676ZM38.0113 6.28438L35.0833 3.11638L34.6427 3.52362L37.5707 6.69162L38.0113 6.28438ZM52.3785 29.624L52.3372 29.9213L52.3472 29.9224L52.3785 29.624ZM61.6425 27.224L61.9073 27.3652L61.9108 27.3582L61.6425 27.224ZM61.2585 24.152L61.5004 23.9746L61.4869 23.9561L61.4706 23.9399L61.2585 24.152ZM60.8745 24.44L61.1719 24.4791L61.1798 24.4193L61.1639 24.3611L60.8745 24.44ZM55.3065 26.888L55.3284 27.1872L55.3295 27.1871L55.3065 26.888ZM50.4585 26.264H50.1585V26.4455L50.3193 26.5298L50.4585 26.264ZM51.2265 18.104L51.4796 18.2651L51.6531 17.9924L51.3683 17.8396L51.2265 18.104ZM47.9145 16.328L48.0563 16.0636L47.6145 15.8267V16.328H47.9145ZM47.9145 25.4H47.6145V25.4333L47.6218 25.4657L47.9145 25.4ZM48.1065 12.344L47.8861 12.1405L47.7076 12.3339L47.876 12.5361L48.1065 12.344ZM49.7865 14.36L49.556 14.5521L49.772 14.8112L50.0041 14.5665L49.7865 14.36ZM51.5625 12.488L51.7801 12.6945L51.9664 12.4982L51.7903 12.2928L51.5625 12.488ZM49.8345 10.472L50.0623 10.2768L49.8428 10.0207L49.6141 10.2685L49.8345 10.472ZM52.3472 29.9224C54.9021 30.19 57.067 29.9481 58.7002 29.4489C60.3147 28.9554 61.4664 28.1916 61.9072 27.3652L61.3778 27.0828C61.0506 27.6964 60.0903 28.3966 58.5248 28.8751C56.978 29.3479 54.8949 29.586 52.4098 29.3256L52.3472 29.9224ZM61.9108 27.3582C62.5571 26.0657 62.0636 24.7426 61.5004 23.9746L61.0166 24.3294C61.5094 25.0014 61.8799 26.0783 61.3742 27.0898L61.9108 27.3582ZM61.4706 23.9399C61.4028 23.8721 61.3157 23.8172 61.2262 23.7824C61.1407 23.7491 61.0165 23.7203 60.8857 23.753C60.731 23.7916 60.6117 23.9062 60.565 24.0696C60.5251 24.2094 60.5431 24.3651 60.5851 24.5189L61.1639 24.3611C61.1499 24.3095 61.1446 24.2738 61.1432 24.2513C61.1417 24.2283 61.1446 24.225 61.142 24.2344C61.1388 24.2456 61.129 24.2694 61.1046 24.2932C61.0802 24.3172 61.0527 24.3297 61.0313 24.335C61.0117 24.3399 60.9996 24.3384 60.9985 24.3383C60.9971 24.3381 61.0008 24.3385 61.0088 24.3416C61.0273 24.3488 61.0422 24.3599 61.0464 24.3641L61.4706 23.9399ZM60.5771 24.4009C60.5302 24.7574 60.3263 25.065 59.9813 25.3358C59.633 25.6091 59.1568 25.8312 58.6099 26.0086C57.5167 26.3634 56.2135 26.5173 55.2835 26.5889L55.3295 27.1871C56.2715 27.1147 57.6323 26.9566 58.7951 26.5794C59.3762 26.3908 59.926 26.1419 60.3517 25.8077C60.7807 25.471 61.0988 25.0346 61.1719 24.4791L60.5771 24.4009ZM55.2846 26.5888C53.3362 26.7314 51.5317 26.4875 50.5977 25.9982L50.3193 26.5298C51.4013 27.0965 53.3408 27.3326 55.3284 27.1872L55.2846 26.5888ZM50.7585 26.264V20.648H50.1585V26.264H50.7585ZM50.7585 20.648C50.7585 19.8837 50.8626 19.4198 50.9947 19.0922C51.131 18.7543 51.2941 18.5566 51.4796 18.2651L50.9734 17.9429C50.8229 18.1794 50.602 18.4617 50.4383 18.8678C50.2704 19.2842 50.1585 19.8283 50.1585 20.648H50.7585ZM51.3683 17.8396L48.0563 16.0636L47.7727 16.5924L51.0847 18.3684L51.3683 17.8396ZM47.6145 16.328V25.4H48.2145V16.328H47.6145ZM47.6218 25.4657C47.9022 26.7147 48.6262 27.7638 49.4986 28.5295C50.3686 29.2931 51.4054 29.7917 52.3372 29.9211L52.4198 29.3269C51.6236 29.2163 50.6924 28.7789 49.8944 28.0785C49.0988 27.3802 48.4548 26.4373 48.2072 25.3343L47.6218 25.4657ZM47.876 12.5361L49.556 14.5521L50.017 14.1679L48.337 12.1519L47.876 12.5361ZM50.0041 14.5665L51.7801 12.6945L51.3449 12.2815L49.5689 14.1535L50.0041 14.5665ZM51.7903 12.2928L50.0623 10.2768L49.6067 10.6672L51.3347 12.6832L51.7903 12.2928ZM49.6141 10.2685L47.8861 12.1405L48.3269 12.5475L50.0549 10.6755L49.6141 10.2685ZM75.1387 20.264L74.9814 20.5197L74.9911 20.5252L75.1387 20.264ZM74.2267 17.336L74.0896 17.6031L74.0999 17.6079L74.2267 17.336ZM67.8907 19.64L68.1123 19.8423L68.1198 19.8341L68.1266 19.8253L67.8907 19.64ZM66.7867 24.824L66.4898 24.8677L66.4912 24.8754L66.7867 24.824ZM73.9387 27.56L74.1705 27.7505L74.4094 27.4599L74.0729 27.2917L73.9387 27.56ZM63.7627 29.72L63.6629 30.0029L63.6651 30.0037L63.7627 29.72ZM62.8507 22.424L63.0501 22.6482L63.2725 22.4505L63.0765 22.2264L62.8507 22.424ZM62.1787 21.656L62.4045 21.4584L62.2223 21.2502L62 21.4151L62.1787 21.656ZM62.8027 32.648L62.9225 32.3729L62.917 32.3706L62.8027 32.648ZM74.2747 30.344L74.4754 30.567L74.5025 30.5426L74.523 30.5125L74.2747 30.344ZM75.4747 25.544L75.7617 25.4563L75.7612 25.4549L75.4747 25.544ZM63.7147 36.728L63.4941 36.5248L63.3042 36.7309L63.497 36.9343L63.7147 36.728ZM65.4427 38.552L65.225 38.7583L65.4399 38.9852L65.6578 38.7612L65.4427 38.552ZM67.1707 36.776L67.3858 36.9852L67.5868 36.7786L67.3884 36.5695L67.1707 36.776ZM65.3947 34.904L65.6124 34.6975L65.3915 34.4647L65.1741 34.7008L65.3947 34.904ZM67.6027 36.776L67.3821 36.5728L67.1922 36.7789L67.385 36.9823L67.6027 36.776ZM69.3307 38.6L69.113 38.8063L69.3307 39.0362L69.5485 38.8063L69.3307 38.6ZM71.0587 36.776L71.2765 36.9823L71.4747 36.7732L71.2737 36.5667L71.0587 36.776ZM69.2827 34.952L69.4977 34.7427L69.2767 34.5158L69.0621 34.7488L69.2827 34.952ZM74.9911 20.5252C75.1445 20.6118 75.3566 20.694 75.5621 20.6078C75.7877 20.5131 75.8471 20.2892 75.8617 20.1477C75.8776 19.9929 75.856 19.8144 75.8187 19.6383C75.7804 19.4576 75.7213 19.2597 75.6491 19.0585C75.5047 18.6569 75.3013 18.2247 75.0848 17.8675C74.9765 17.6889 74.8617 17.5235 74.7454 17.3883C74.6339 17.2586 74.5015 17.1331 74.3536 17.0641L74.0999 17.6079C74.132 17.6229 74.1976 17.6714 74.2904 17.7794C74.3786 17.882 74.4744 18.0181 74.5717 18.1785C74.7662 18.4993 74.9527 18.8951 75.0844 19.2615C75.1501 19.4443 75.2005 19.6154 75.2317 19.7625C75.2638 19.9141 75.2714 20.0221 75.2648 20.0863C75.2569 20.1638 75.242 20.0914 75.33 20.0545C75.3979 20.026 75.409 20.0722 75.2864 20.0028L74.9911 20.5252ZM74.3638 17.0691C73.8482 16.8044 73.2302 16.7521 72.6018 16.8242C71.9708 16.8966 71.3048 17.0971 70.6715 17.3658C69.4142 17.8994 68.2249 18.7291 67.6549 19.4547L68.1266 19.8253C68.6126 19.2069 69.7033 18.4286 70.9059 17.9182C71.5027 17.6649 72.1117 17.4844 72.6702 17.4203C73.2313 17.3559 73.7173 17.4116 74.0897 17.6029L74.3638 17.0691ZM67.6692 19.4377C67.1101 20.05 66.7601 21.0025 66.576 21.9784C66.3904 22.9618 66.3646 24.0155 66.4899 24.8676L67.0835 24.7804C66.9689 24.0005 66.9911 23.0142 67.1655 22.0896C67.3414 21.1575 67.6633 20.334 68.1123 19.8423L67.6692 19.4377ZM66.4912 24.8754C66.6097 25.5571 67.1013 26.019 67.7102 26.3403C68.3181 26.6611 69.0908 26.8687 69.8715 27.0261C70.651 27.1832 71.4782 27.2971 72.1774 27.4148C72.898 27.5362 73.4675 27.6598 73.8046 27.8283L74.0729 27.2917C73.642 27.0762 72.9815 26.9418 72.2771 26.8232C71.5513 26.7009 70.7585 26.5928 69.99 26.4379C69.2227 26.2833 68.5194 26.0889 67.9903 25.8097C67.4622 25.531 67.1558 25.1949 67.0823 24.7726L66.4912 24.8754ZM73.707 27.3695C72.8858 28.3682 71.1586 29.1421 69.2232 29.534C67.2966 29.924 65.2555 29.9166 63.8604 29.4363L63.6651 30.0037C65.198 30.5314 67.3569 30.524 69.3423 30.122C71.3188 29.7219 73.2157 28.9118 74.1705 27.7505L73.707 27.3695ZM63.8626 29.4371C62.4053 28.9228 61.8794 27.5509 61.8967 26.0755C61.9053 25.3426 62.0503 24.6073 62.2702 23.9884C62.4929 23.3616 62.7804 22.8879 63.0501 22.6482L62.6514 22.1998C62.2731 22.5361 61.9426 23.1184 61.7048 23.7876C61.4642 24.4647 61.3062 25.2654 61.2968 26.0685C61.2781 27.6651 61.8562 29.3652 63.6629 30.0029L63.8626 29.4371ZM63.0765 22.2264L62.4045 21.4584L61.953 21.8535L62.625 22.6216L63.0765 22.2264ZM62 21.4151C61.1996 22.0089 60.5477 22.9598 60.0966 24.0228C59.6442 25.0887 59.3827 26.2924 59.3827 27.416H59.9827C59.9827 26.3796 60.2253 25.2553 60.6489 24.2572C61.0738 23.2562 61.6699 22.4071 62.3575 21.8969L62 21.4151ZM59.3827 27.416C59.3827 28.5704 59.5541 29.6806 60.0593 30.6398C60.5685 31.6065 61.4045 32.3967 62.6885 32.9254L62.917 32.3706C61.753 31.8913 61.029 31.1935 60.5902 30.3602C60.1474 29.5194 59.9827 28.5176 59.9827 27.416H59.3827ZM62.683 32.923C64.2573 33.6087 66.6007 33.5578 68.8173 33.0854C71.0384 32.6121 73.2203 31.6966 74.4754 30.567L74.0741 30.121C72.9292 31.1514 70.8631 32.0359 68.6922 32.4986C66.5167 32.9622 64.3242 32.9833 62.9225 32.373L62.683 32.923ZM74.523 30.5125C75.443 29.1566 76.3325 27.3245 75.7617 25.4563L75.1878 25.6317C75.673 27.2195 74.9305 28.8434 74.0265 30.1755L74.523 30.5125ZM75.7612 25.4549C75.5504 24.7773 74.9098 24.3629 74.1974 24.0861C73.4728 23.8046 72.5844 23.6311 71.7444 23.4901C70.8887 23.3465 70.0937 23.2377 69.5009 23.0865C69.2041 23.0109 68.9877 22.9314 68.8513 22.8477C68.7144 22.7637 68.7187 22.7161 68.7187 22.712H68.1187C68.1187 23.0199 68.3226 23.2273 68.5375 23.3591C68.7528 23.4912 69.0404 23.5884 69.3526 23.668C69.9778 23.8273 70.8208 23.9435 71.6451 24.0819C72.4851 24.2229 73.3187 24.3884 73.9801 24.6454C74.6537 24.9071 75.0631 25.2307 75.1883 25.6331L75.7612 25.4549ZM68.7187 22.712C68.7187 22.3387 68.9672 21.9579 69.4694 21.5936C69.9645 21.2345 70.6524 20.9332 71.3957 20.7137C72.1366 20.4949 72.9138 20.363 73.5763 20.3319C73.9075 20.3164 74.2041 20.3264 74.4498 20.3611C74.7001 20.3964 74.8757 20.4544 74.9815 20.5195L75.296 20.0085C75.0898 19.8816 74.8214 19.8076 74.5336 19.767C74.2411 19.7257 73.9055 19.7158 73.5482 19.7326C72.8337 19.766 72.0089 19.9071 71.2258 20.1383C70.4451 20.3688 69.687 20.6945 69.1171 21.1079C68.5543 21.5161 68.1187 22.0533 68.1187 22.712H68.7187ZM63.497 36.9343L65.225 38.7583L65.6605 38.3457L63.9325 36.5217L63.497 36.9343ZM65.6578 38.7612L67.3858 36.9852L66.9557 36.5668L65.2277 38.3428L65.6578 38.7612ZM67.3884 36.5695L65.6124 34.6975L65.1771 35.1105L66.9531 36.9825L67.3884 36.5695ZM65.1741 34.7008L63.4941 36.5248L63.9354 36.9312L65.6154 35.1072L65.1741 34.7008ZM67.385 36.9823L69.113 38.8063L69.5485 38.3937L67.8205 36.5697L67.385 36.9823ZM69.5485 38.8063L71.2765 36.9823L70.841 36.5697L69.113 38.3937L69.5485 38.8063ZM71.2737 36.5667L69.4977 34.7427L69.0678 35.1613L70.8438 36.9853L71.2737 36.5667ZM69.0621 34.7488L67.3821 36.5728L67.8234 36.9792L69.5034 35.1552L69.0621 34.7488ZM80.8159 4.376L81.06 4.20163L80.5159 3.43986V4.376H80.8159ZM80.7679 5.912L80.4685 5.89204L80.4684 5.89371L80.7679 5.912ZM80.0479 28.28L79.7483 28.2956L79.7485 28.3L80.0479 28.28ZM81.5839 30.584L81.3812 30.8051L81.489 30.904L81.6332 30.8799L81.5839 30.584ZM81.8719 30.536L81.9212 30.8319L82.1719 30.7901V30.536H81.8719ZM81.9679 25.784L81.6748 25.7201L81.6687 25.7477L81.668 25.7759L81.9679 25.784ZM87.9199 21.512L87.8943 21.213L87.8887 21.2136L87.9199 21.512ZM93.4879 23.192L93.7664 23.3034L93.8155 23.1808L93.7582 23.0619L93.4879 23.192ZM92.2399 26.312L91.9613 26.2006L91.9264 26.2879L91.9476 26.3795L92.2399 26.312ZM94.2079 28.952L94.0279 29.192L94.1079 29.252H94.2079V28.952ZM102.032 28.952V28.652H102.022L102.012 28.6526L102.032 28.952ZM104.72 26.072L105.017 26.1165L105.075 25.7287L104.685 25.774L104.72 26.072ZM95.0239 26.168L94.7393 26.0731L94.6178 26.4376L95.0009 26.4671L95.0239 26.168ZM93.9679 20.6L94.2251 20.4457L94.2138 20.4267L94.1998 20.4097L93.9679 20.6ZM81.9679 20.936L81.6684 20.9181L81.6152 21.8085L82.1956 21.1312L81.9679 20.936ZM82.8319 11.288L83.1261 11.3468L83.1275 11.3394L83.1286 11.332L82.8319 11.288ZM83.4559 8.072L83.746 8.14835L83.7818 8.01219L83.7 7.89763L83.4559 8.072ZM80.5159 4.376C80.5159 4.70967 80.5159 5.18193 80.4685 5.89204L81.0672 5.93195C81.1159 5.20207 81.1159 4.71432 81.1159 4.376H80.5159ZM80.4684 5.89371C80.0848 12.1754 79.5072 23.6668 79.7483 28.2956L80.3475 28.2644C80.1086 23.6772 80.6829 12.2246 81.0673 5.93028L80.4684 5.89371ZM79.7485 28.3C79.7787 28.7519 80.066 29.2561 80.3754 29.6807C80.6948 30.119 81.0807 30.5297 81.3812 30.8051L81.7866 30.3629C81.5111 30.1103 81.153 29.729 80.8603 29.3273C80.5577 28.9119 80.3651 28.5281 80.3472 28.26L79.7485 28.3ZM81.6332 30.8799L81.9212 30.8319L81.8226 30.2401L81.5346 30.2881L81.6332 30.8799ZM82.1719 30.536C82.1719 29.389 82.2197 27.5698 82.2678 25.7921L81.668 25.7759C81.62 27.5502 81.5719 29.379 81.5719 30.536H82.1719ZM82.261 25.8479C82.5329 24.6019 83.1732 23.6837 84.1236 23.0313C85.0821 22.3735 86.372 21.9754 87.951 21.8104L87.8887 21.2136C86.2518 21.3846 84.8537 21.8025 83.7841 22.5367C82.7066 23.2763 81.9789 24.3261 81.6748 25.7201L82.261 25.8479ZM87.9455 21.8109C88.7487 21.7421 89.9513 21.8341 91.0271 22.103C91.564 22.2373 92.0567 22.4125 92.447 22.6258C92.8424 22.8418 93.1007 23.0794 93.2176 23.3221L93.7582 23.0619C93.563 22.6566 93.1793 22.3422 92.7347 22.0992C92.285 21.8535 91.7398 21.6627 91.1726 21.521C90.0404 21.2379 88.7711 21.1379 87.8943 21.2131L87.9455 21.8109ZM93.2093 23.0806L91.9613 26.2006L92.5184 26.4234L93.7664 23.3034L93.2093 23.0806ZM91.9476 26.3795C92.0332 26.7505 92.3135 27.2697 92.6744 27.7712C93.0406 28.2803 93.517 28.8089 94.0279 29.192L94.3879 28.712C93.9387 28.3751 93.5031 27.8957 93.1614 27.4208C92.8143 26.9383 92.5906 26.4975 92.5322 26.2445L91.9476 26.3795ZM94.2079 29.252C95.7203 29.252 99.8313 29.3962 102.051 29.2514L102.012 28.6526C99.8165 28.7958 95.7675 28.652 94.2079 28.652V29.252ZM102.032 29.252C102.362 29.252 102.702 29.0918 103.006 28.8848C103.317 28.6724 103.628 28.3843 103.906 28.0714C104.185 27.7579 104.439 27.4119 104.633 27.0782C104.825 26.7499 104.972 26.4114 105.017 26.1165L104.423 26.0275C104.395 26.2126 104.291 26.4741 104.115 26.7758C103.942 27.0721 103.713 27.3861 103.458 27.6726C103.202 27.9597 102.928 28.2116 102.668 28.3892C102.399 28.5722 102.182 28.652 102.032 28.652V29.252ZM104.685 25.774C102.645 26.0112 96.9054 26.0118 95.0469 25.8689L95.0009 26.4671C96.8864 26.6122 102.666 26.6128 104.755 26.37L104.685 25.774ZM95.3085 26.2629C95.3856 26.0316 95.4843 25.6472 95.5635 25.2696C95.6413 24.8984 95.7079 24.4987 95.7079 24.248H95.1079C95.1079 24.4293 95.0544 24.7736 94.9763 25.1464C94.8994 25.5128 94.8062 25.8724 94.7393 26.0731L95.3085 26.2629ZM95.7079 24.248C95.7079 22.6573 94.9265 21.6146 94.2251 20.4457L93.7106 20.7543C94.4493 21.9854 95.1079 22.8627 95.1079 24.248H95.7079ZM94.1998 20.4097C92.5792 18.4346 90.1101 17.7974 87.4966 18.1426L87.5751 18.7374C90.0497 18.4106 92.2846 19.0214 93.7359 20.7903L94.1998 20.4097ZM87.4966 18.1426C84.9157 18.4834 82.9597 19.3179 81.7401 20.7408L82.1956 21.1312C83.2801 19.8661 85.068 19.0685 87.5751 18.7374L87.4966 18.1426ZM82.2673 20.9539C82.5314 16.537 82.6871 14.4314 82.8063 13.2809C82.9244 12.1411 83.004 11.957 83.1261 11.3468L82.5377 11.2292C82.4197 11.819 82.3314 12.0429 82.2095 13.2191C82.0887 14.3846 81.9324 16.503 81.6684 20.9181L82.2673 20.9539ZM83.1286 11.332C83.3198 10.0419 83.5098 9.04573 83.746 8.14835L83.1658 7.99565C82.9219 8.92227 82.728 9.94209 82.5351 11.244L83.1286 11.332ZM83.7 7.89763L81.06 4.20163L80.5718 4.55037L83.2118 8.24637L83.7 7.89763ZM102.804 25.592L102.511 25.6589L102.514 25.6718L102.804 25.592ZM106.548 29.096L106.579 28.7977L106.577 28.7974L106.548 29.096ZM116.772 29.096L116.797 29.3949L116.806 29.3941L116.815 29.3928L116.772 29.096ZM119.892 26.216L119.914 26.5152L119.918 26.5148L119.892 26.216ZM104.964 26.168L104.717 26.3388L104.742 26.3748L104.776 26.4023L104.964 26.168ZM104.628 23.528L104.7 23.237L104.379 23.1567L104.331 23.484L104.628 23.528ZM110.004 23.432L110.168 23.6828L110.17 23.6816L110.004 23.432ZM111.252 19.88L111.549 19.8416L111.548 19.8344L111.547 19.8273L111.252 19.88ZM105.396 21.128L105.112 21.0289L105.008 21.3274L105.312 21.416L105.396 21.128ZM110.1 20.312H110.4V20.2823L110.394 20.2532L110.1 20.312ZM109.38 21.128L109.478 21.4113L109.496 21.405L109.514 21.3963L109.38 21.128ZM107.172 12.296L106.982 12.0632L106.787 12.2221L106.91 12.4422L107.172 12.296ZM108.324 14.36L108.062 14.5062L108.236 14.818L108.513 14.5928L108.324 14.36ZM110.628 12.488L110.817 12.7208L111.012 12.5619L110.89 12.3418L110.628 12.488ZM109.476 10.424L109.738 10.2778L109.564 9.96601L109.286 10.1912L109.476 10.424ZM107.796 16.076C105.795 16.076 104.277 17.6762 103.372 19.5961C102.462 21.5267 102.109 23.8997 102.511 25.6588L103.096 25.5252C102.73 23.9243 103.049 21.6893 103.915 19.8519C104.786 18.0038 106.149 16.676 107.796 16.676V16.076ZM102.514 25.6718C102.909 27.1017 103.88 29.1359 106.518 29.3946L106.577 28.7974C104.319 28.5761 103.466 26.8663 103.093 25.5122L102.514 25.6718ZM106.516 29.3943C110.144 29.7813 115.11 29.5395 116.797 29.3949L116.746 28.7971C115.073 28.9405 110.151 29.1787 106.579 28.7977L106.516 29.3943ZM116.815 29.3928C117.28 29.3244 117.821 29.0825 118.329 28.783C118.844 28.48 119.352 28.1018 119.757 27.7341C119.96 27.5502 120.14 27.3657 120.284 27.1912C120.424 27.021 120.543 26.8433 120.604 26.6736C120.663 26.5115 120.699 26.2559 120.497 26.0687C120.329 25.9125 120.081 25.8981 119.865 25.9172L119.918 26.5148C120.11 26.4979 120.122 26.539 120.089 26.5085C120.023 26.4469 120.07 26.387 120.04 26.4694C120.013 26.5442 119.944 26.6597 119.82 26.8102C119.7 26.9563 119.541 27.1198 119.354 27.2899C118.979 27.6302 118.504 27.984 118.025 28.266C117.54 28.5515 117.079 28.7476 116.728 28.7992L116.815 29.3928ZM119.869 25.9169C118.604 26.0124 115.117 26.1921 111.828 26.252C110.183 26.282 108.593 26.2819 107.357 26.2268C106.738 26.1992 106.214 26.1581 105.819 26.1015C105.621 26.0731 105.462 26.0417 105.342 26.0083C105.214 25.9724 105.162 25.9424 105.151 25.9337L104.776 26.4023C104.885 26.4896 105.035 26.5454 105.181 26.5862C105.335 26.6293 105.522 26.6651 105.734 26.6954C106.157 26.7561 106.703 26.7983 107.33 26.8262C108.585 26.8821 110.19 26.882 111.839 26.852C115.138 26.7919 118.636 26.6116 119.914 26.5151L119.869 25.9169ZM105.21 25.9972C104.843 25.467 104.736 24.8412 104.924 23.572L104.331 23.484C104.135 24.8068 104.22 25.621 104.717 26.3388L105.21 25.9972ZM104.555 23.819C105.323 24.011 106.307 24.2458 107.299 24.3015C108.288 24.3571 109.323 24.2375 110.168 23.6828L109.839 23.1812C109.148 23.6345 108.264 23.7549 107.332 23.7025C106.404 23.6502 105.469 23.429 104.7 23.237L104.555 23.819ZM110.17 23.6816C111.459 22.822 111.748 21.3812 111.549 19.8416L110.954 19.9184C111.139 21.3548 110.852 22.506 109.837 23.1824L110.17 23.6816ZM111.547 19.8273C111.416 19.0966 110.982 18.1726 110.346 17.4289C109.71 16.6866 108.83 16.076 107.796 16.076V16.676C108.585 16.676 109.313 17.1454 109.89 17.8191C110.465 18.4914 110.847 19.3194 110.956 19.9327L111.547 19.8273ZM105.679 21.2271C105.828 20.7998 106.145 20.3268 106.564 19.9625C106.984 19.5983 107.481 19.364 107.988 19.364V18.764C107.295 18.764 106.664 19.0817 106.171 19.5095C105.678 19.9372 105.299 20.4962 105.112 21.0289L105.679 21.2271ZM107.988 19.364C108.289 19.364 108.733 19.4789 109.119 19.6832C109.521 19.8954 109.761 20.15 109.805 20.3708L110.394 20.2532C110.294 19.754 109.838 19.3846 109.4 19.1528C108.946 18.9131 108.407 18.764 107.988 18.764V19.364ZM109.8 20.312C109.8 20.4611 109.712 20.6262 109.245 20.8597L109.514 21.3963C110.007 21.1498 110.4 20.8349 110.4 20.312H109.8ZM109.281 20.8447C108.773 21.0215 108.102 21.1038 107.408 21.098C106.716 21.0922 106.024 20.9989 105.48 20.84L105.312 21.416C105.919 21.5931 106.667 21.6918 107.403 21.698C108.137 21.7042 108.883 21.6185 109.478 21.4113L109.281 20.8447ZM106.91 12.4422L108.062 14.5062L108.586 14.2138L107.434 12.1498L106.91 12.4422ZM108.513 14.5928L110.817 12.7208L110.438 12.2552L108.134 14.1272L108.513 14.5928ZM110.89 12.3418L109.738 10.2778L109.214 10.5702L110.366 12.6342L110.89 12.3418ZM109.286 10.1912L106.982 12.0632L107.361 12.5288L109.665 10.6568L109.286 10.1912ZM121.04 28.136L121.172 28.4052L121.777 28.1077L121.151 27.8575L121.04 28.136ZM120.704 19.4L120.959 19.5579L120.959 19.5572L120.704 19.4ZM126.032 19.064L126.123 18.7783L126.116 18.7759L126.108 18.7739L126.032 19.064ZM128.24 21.656L128.474 21.8434L128.488 21.8262L128.499 21.8072L128.24 21.656ZM126.848 16.328L126.923 16.0376L126.921 16.037L126.848 16.328ZM122.192 16.328L122.231 16.6255L122.239 16.6244L122.247 16.6229L122.192 16.328ZM118.592 19.736L118.884 19.8029L118.886 19.7963L118.592 19.736ZM118.064 28.52L118.363 28.5472L118.364 28.5336V28.52H118.064ZM118.016 29.624H117.716V30.106L118.148 29.8932L118.016 29.624ZM121.151 27.8575C121.219 27.8846 121.255 27.9289 121.265 27.9421C121.279 27.9595 121.285 27.9727 121.286 27.9745C121.288 27.9784 121.284 27.9719 121.277 27.9475C121.263 27.9009 121.246 27.8254 121.226 27.7188C121.186 27.5082 121.142 27.2055 121.096 26.8357C121.005 26.0975 120.913 25.1088 120.847 24.0907C120.782 23.0719 120.743 22.0296 120.759 21.1825C120.767 20.7585 120.789 20.3894 120.827 20.0994C120.866 19.794 120.918 19.6234 120.959 19.5579L120.449 19.2421C120.333 19.4286 120.271 19.717 120.232 20.0223C120.19 20.343 120.168 20.7363 120.159 21.171C120.143 22.0414 120.182 23.1021 120.248 24.1293C120.315 25.1572 120.408 26.1575 120.501 26.9088C120.547 27.2837 120.593 27.6009 120.636 27.83C120.657 27.9433 120.679 28.0426 120.702 28.1188C120.713 28.1558 120.727 28.1977 120.746 28.2362C120.755 28.2553 120.77 28.2824 120.791 28.31C120.809 28.3335 120.853 28.3844 120.928 28.4145L121.151 27.8575ZM120.959 19.5572C120.953 19.5673 120.978 19.5294 121.115 19.4761C121.238 19.4282 121.409 19.3839 121.623 19.3458C122.049 19.27 122.601 19.2256 123.179 19.2079C123.755 19.1901 124.348 19.199 124.852 19.227C125.364 19.2555 125.76 19.3026 125.956 19.3541L126.108 18.7739C125.848 18.7054 125.398 18.6565 124.885 18.628C124.364 18.599 123.754 18.5899 123.161 18.6081C122.569 18.6264 121.984 18.672 121.518 18.7551C121.285 18.7966 121.071 18.8491 120.897 18.917C120.736 18.9796 120.551 19.0767 120.448 19.2428L120.959 19.5572ZM125.94 19.3497C126.49 19.5255 126.873 19.8028 127.123 20.1644C127.374 20.528 127.508 21.0039 127.508 21.608H128.108C128.108 20.9161 127.954 20.312 127.617 19.8236C127.278 19.3332 126.774 18.9865 126.123 18.7783L125.94 19.3497ZM127.508 21.608C127.508 21.7202 127.527 21.8472 127.597 21.9552C127.679 22.0799 127.81 22.148 127.952 22.148C128.075 22.148 128.181 22.0976 128.258 22.0466C128.338 21.993 128.411 21.9221 128.474 21.8434L128.006 21.4686C127.973 21.5099 127.944 21.535 127.925 21.5474C127.902 21.5624 127.913 21.548 127.952 21.548C127.975 21.548 128.005 21.5532 128.036 21.5699C128.067 21.5867 128.088 21.6089 128.099 21.6268C128.119 21.6568 128.108 21.6637 128.108 21.608H127.508ZM128.499 21.8072C129.036 20.8873 129.304 19.6408 129.118 18.5284C128.929 17.4012 128.263 16.3859 126.923 16.0377L126.772 16.6183C127.833 16.8941 128.367 17.6788 128.526 18.6276C128.688 19.5912 128.452 20.6967 127.981 21.5048L128.499 21.8072ZM126.921 16.037C126.397 15.906 125.386 15.8721 124.444 15.884C123.496 15.896 122.549 15.9559 122.137 16.0331L122.247 16.6229C122.603 16.5561 123.504 16.496 124.452 16.484C125.405 16.4719 126.339 16.51 126.775 16.619L126.921 16.037ZM122.153 16.0305C121.525 16.1124 120.669 16.5321 119.929 17.1543C119.184 17.7801 118.508 18.6508 118.298 19.6757L118.886 19.7963C119.06 18.9492 119.632 18.1879 120.315 17.6137C121.002 17.0359 121.754 16.6876 122.231 16.6255L122.153 16.0305ZM118.299 19.6692C117.907 21.387 117.764 23.9639 117.764 28.52H118.364C118.364 23.9561 118.509 21.445 118.884 19.8028L118.299 19.6692ZM117.765 28.4928C117.716 29.034 117.716 29.3804 117.716 29.624H118.316C118.316 29.3876 118.316 29.062 118.363 28.5472L117.765 28.4928ZM118.148 29.8932L121.172 28.4052L120.907 27.8668L117.883 29.3548L118.148 29.8932ZM161.271 32.456L161.281 32.7559L161.285 32.7557L161.271 32.456ZM149.271 6.872L149.553 6.76837L149.509 6.64936L149.393 6.59786L149.271 6.872ZM145.383 5.144L145.505 4.86986L144.836 4.5727L145.104 5.2537L145.383 5.144ZM142.935 29.72L143.234 29.6996L143.234 29.6895L143.232 29.6795L142.935 29.72ZM148.695 33.56L148.642 33.8554L148.863 33.8946L148.963 33.6942L148.695 33.56ZM148.743 33.224H149.043V33.056L148.9 32.9682L148.743 33.224ZM146.487 30.68L146.194 30.7442L146.197 30.7559L146.2 30.7673L146.487 30.68ZM148.743 12.536L149.036 12.4712L148.443 12.536H148.743ZM157.911 33.128L158.029 32.852L158.024 32.8501L157.911 33.128ZM166.407 30.776L166.161 30.604L166.407 30.776ZM169.143 11.72L168.844 11.7442L168.844 11.746L169.143 11.72ZM168.375 6.2L168.669 6.14116L168.658 6.08594L168.628 6.03848L168.375 6.2ZM165.207 1.16L165.452 0.987212L165.247 0.6958L164.995 0.947867L165.207 1.16ZM164.919 1.304L164.707 1.09186L164.598 1.20103L164.623 1.35332L164.919 1.304ZM166.167 10.376L166.467 10.3594L166.466 10.3559L166.167 10.376ZM161.261 32.1562C159.914 32.1989 158.67 31.2322 157.499 29.4735C156.338 27.728 155.306 25.2869 154.367 22.5719C153.428 19.8604 152.587 16.8973 151.799 14.1155C151.013 11.3395 150.277 8.73764 149.553 6.76837L148.989 6.97563C149.705 8.91836 150.433 11.4945 151.222 14.279C152.009 17.0577 152.854 20.0376 153.8 22.7681C154.744 25.4951 155.794 27.995 157 29.806C158.196 31.6038 159.604 32.8091 161.281 32.7558L161.261 32.1562ZM149.393 6.59786L145.505 4.86986L145.261 5.41814L149.149 7.14614L149.393 6.59786ZM145.104 5.2537C145.627 6.58592 146.331 8.46426 146.331 11.24H146.931C146.931 8.35174 146.195 6.39008 145.662 5.0343L145.104 5.2537ZM146.331 11.24C146.331 12.1714 146.073 13.5162 145.681 15.1018C145.291 16.6813 144.777 18.4663 144.278 20.2741C143.78 22.0775 143.297 23.9005 142.975 25.5394C142.655 27.1708 142.487 28.6523 142.638 29.7605L143.232 29.6795C143.095 28.6757 143.245 27.2772 143.564 25.6551C143.881 24.0405 144.358 22.2365 144.856 20.4339C145.353 18.6357 145.871 16.8357 146.264 15.2457C146.655 13.6618 146.931 12.2526 146.931 11.24H146.331ZM142.636 29.7404C142.674 30.2969 142.789 30.7964 143.023 31.2423C143.258 31.6903 143.604 32.0679 144.08 32.392C145.019 33.0309 146.479 33.4708 148.642 33.8554L148.748 33.2646C146.591 32.8812 145.243 32.4571 144.418 31.896C144.012 31.6201 143.737 31.3137 143.554 30.9637C143.369 30.6116 143.268 30.1991 143.234 29.6996L142.636 29.7404ZM148.963 33.6942C149.049 33.5235 149.043 33.3521 149.043 33.224H148.443C148.443 33.3008 148.443 33.3428 148.439 33.3769C148.436 33.4046 148.431 33.4166 148.427 33.4258L148.963 33.6942ZM148.9 32.9682C148.162 32.5163 147.714 32.1754 147.409 31.8265C147.11 31.4851 146.935 31.1202 146.774 30.5927L146.2 30.7673C146.375 31.3438 146.584 31.7949 146.957 32.2215C147.324 32.6407 147.836 33.0197 148.586 33.4798L148.9 32.9682ZM146.78 30.6158C146.6 29.7928 146.638 28.5048 146.814 26.9708C146.988 25.4474 147.292 23.7181 147.621 22.0315C147.951 20.3429 148.304 18.7112 148.577 17.3679C148.712 16.6986 148.828 16.1013 148.91 15.6101C148.992 15.1247 149.043 14.7237 149.043 14.456H148.443C148.443 14.6683 148.4 15.0248 148.319 15.5112C148.238 15.9918 148.124 16.5807 147.988 17.2486C147.718 18.5798 147.363 20.2271 147.033 21.9165C146.702 23.6079 146.394 25.3556 146.217 26.9027C146.042 28.4392 145.99 29.8152 146.194 30.7442L146.78 30.6158ZM149.043 14.456V12.536H148.443V14.456H149.043ZM148.45 12.6008C149.1 15.5385 150.364 20.2816 151.985 24.5055C152.795 26.6167 153.698 28.6082 154.664 30.1821C155.62 31.7422 156.671 32.9472 157.798 33.4059L158.024 32.8501C157.087 32.4688 156.122 31.4118 155.175 29.8684C154.237 28.3388 153.349 26.3853 152.545 24.2905C150.938 20.1024 149.682 15.3895 149.036 12.4712L148.45 12.6008ZM157.793 33.404C160.493 34.5539 164.542 33.9633 166.653 30.948L166.161 30.604C164.24 33.3487 160.513 33.9101 158.029 32.852L157.793 33.404ZM166.653 30.948C167.356 29.944 167.897 28.5078 168.313 26.8735C168.73 25.2338 169.026 23.3707 169.225 21.4957C169.623 17.7475 169.636 13.924 169.442 11.694L168.844 11.746C169.034 13.932 169.023 17.7165 168.629 21.4323C168.432 23.2893 168.14 25.1222 167.732 26.7255C167.323 28.3342 166.802 29.688 166.161 30.604L166.653 30.948ZM169.442 11.6958C169.297 9.90846 169.008 7.8329 168.669 6.14116L168.081 6.25883C168.414 7.9271 168.701 9.97954 168.844 11.7442L169.442 11.6958ZM168.628 6.03848C167.545 4.34293 166.941 3.1009 165.452 0.987212L164.962 1.33278C166.449 3.4431 166.997 4.60106 168.122 6.36152L168.628 6.03848ZM164.995 0.947867C164.965 0.977878 164.955 0.976874 164.954 0.976956C164.95 0.977934 164.946 0.978927 164.935 0.980937C164.928 0.982411 164.909 0.985918 164.891 0.990456C164.853 0.999993 164.776 1.02311 164.707 1.09186L165.131 1.51613C165.086 1.56089 165.039 1.57201 165.037 1.57254C165.037 1.57258 165.038 1.57234 165.051 1.56969C165.062 1.56757 165.08 1.56406 165.1 1.55904C165.195 1.53512 165.305 1.48612 165.419 1.37213L164.995 0.947867ZM164.623 1.35332C164.818 2.52263 165.533 5.42368 165.868 10.3961L166.466 10.3559C166.129 5.34432 165.404 2.38936 165.215 1.25468L164.623 1.35332ZM165.867 10.3926C166.058 13.8268 165.831 19.2766 165.061 23.8866C164.676 26.1933 164.157 28.2709 163.496 29.7764C163.165 30.5296 162.806 31.1231 162.423 31.5299C162.041 31.9346 161.653 32.1372 161.257 32.1563L161.285 32.7557C161.885 32.7268 162.409 32.4194 162.859 31.9414C163.308 31.4654 163.7 30.8034 164.045 30.0176C164.736 28.4451 165.264 26.3107 165.653 23.9854C166.431 19.3314 166.66 13.8372 166.467 10.3594L165.867 10.3926ZM181.197 28.04L181.428 28.2313L181.435 28.2231L181.441 28.2144L181.197 28.04ZM182.205 26.024L182.478 25.8999L182.162 25.2044L181.92 25.9291L182.205 26.024ZM185.949 29L186.003 28.7049L185.994 28.7034L185.949 29ZM190.173 29.048L190.142 28.7495L190.135 28.7503L190.173 29.048ZM193.149 26.072L193.419 26.2027L193.65 25.7236L193.121 25.7733L193.149 26.072ZM184.413 24.056H184.113L184.113 24.0646L184.413 24.056ZM184.605 15.224L184.905 15.2195L184.894 14.5283L184.396 15.008L184.605 15.224ZM181.965 17.768L181.756 17.552L181.665 17.6405V17.768H181.965ZM181.965 18.872L182.047 19.1605L182.265 19.0983V18.872H181.965ZM173.661 22.856L173.448 22.6439L173.438 22.6539L173.429 22.6649L173.661 22.856ZM172.893 26.6L173.192 26.5745L173.19 26.5643L172.893 26.6ZM181.965 20.792L182.264 20.8017L182.276 20.4338L181.914 20.4964L181.965 20.792ZM181.965 25.4H182.265V25.384L182.263 25.368L181.965 25.4ZM181.965 25.496L182.016 25.7915L182.265 25.7482V25.496H181.965ZM175.341 24.968L175.627 24.8785L175.625 24.8731L175.341 24.968ZM181.441 28.2144C181.697 27.8559 182.239 26.8693 182.489 26.1189L181.92 25.9291C181.69 26.6187 181.176 27.5521 180.952 27.8656L181.441 28.2144ZM181.932 26.1481C182.195 26.7277 182.768 27.4451 183.467 28.0456C184.166 28.6457 185.033 29.1647 185.904 29.2966L185.994 28.7034C185.28 28.5953 184.515 28.1543 183.858 27.5904C183.202 27.0269 182.694 26.3762 182.478 25.8999L181.932 26.1481ZM185.894 29.295C187.228 29.542 188.652 29.5404 190.21 29.3457L190.135 28.7503C188.621 28.9396 187.261 28.938 186.003 28.705L185.894 29.295ZM190.203 29.3464C190.997 29.2643 191.625 28.8392 192.137 28.2633C192.645 27.6913 193.056 26.9526 193.419 26.2027L192.879 25.9413C192.521 26.6794 192.14 27.3567 191.688 27.8647C191.24 28.3688 190.74 28.6877 190.142 28.7496L190.203 29.3464ZM193.121 25.7733C191.601 25.9158 189.983 25.916 188.589 25.916V26.516C189.978 26.516 191.624 26.5162 193.177 26.3707L193.121 25.7733ZM188.589 25.916C187.373 25.916 186.395 25.7951 185.724 25.4925C185.393 25.3435 185.149 25.1555 184.985 24.927C184.821 24.7004 184.723 24.4154 184.713 24.0474L184.113 24.0646C184.126 24.5366 184.256 24.9416 184.498 25.2775C184.738 25.6115 185.076 25.8585 185.477 26.0395C186.27 26.3969 187.356 26.516 188.589 26.516V25.916ZM184.713 24.056C184.713 22.527 184.772 21.1294 184.826 19.7054C184.88 18.2827 184.929 16.836 184.905 15.2195L184.305 15.2285C184.329 16.828 184.281 18.2613 184.227 19.6826C184.173 21.1026 184.113 22.513 184.113 24.056H184.713ZM184.396 15.008L181.756 17.552L182.173 17.984L184.813 15.44L184.396 15.008ZM181.665 17.768V18.872H182.265V17.768H181.665ZM181.882 18.5835C180.528 18.9703 178.882 19.5269 177.348 20.2121C175.821 20.8944 174.376 21.7163 173.448 22.6439L173.873 23.0681C174.721 22.2197 176.085 21.4337 177.593 20.7599C179.095 20.0891 180.713 19.5417 182.047 19.1605L181.882 18.5835ZM173.429 22.6649C172.433 23.871 172.449 25.4235 172.595 26.6357L173.19 26.5643C173.048 25.3765 173.064 24.0489 173.892 23.0471L173.429 22.6649ZM172.594 26.6254C172.656 27.3522 173.253 27.879 173.975 28.2407C174.712 28.6103 175.672 28.8569 176.645 28.9854C177.621 29.1142 178.631 29.1274 179.479 29.017C179.902 28.9618 180.294 28.8747 180.622 28.7511C180.947 28.6293 181.237 28.4623 181.428 28.2313L180.965 27.8487C180.869 27.9657 180.689 28.0852 180.411 28.1895C180.138 28.292 179.795 28.3707 179.401 28.422C178.614 28.5246 177.656 28.5138 176.724 28.3906C175.789 28.2671 174.901 28.0337 174.244 27.7043C173.57 27.367 173.226 26.9758 173.192 26.5746L172.594 26.6254ZM181.665 20.7823C181.617 22.2554 181.519 24.0611 181.666 25.432L182.263 25.368C182.122 24.0509 182.216 22.3046 182.264 20.8017L181.665 20.7823ZM181.665 25.4V25.496H182.265V25.4H181.665ZM181.913 25.2005C180.425 25.4602 178.855 25.5189 177.633 25.419C177.021 25.3689 176.509 25.2801 176.143 25.163C175.96 25.1043 175.825 25.0424 175.736 24.9831C175.644 24.9216 175.628 24.8821 175.627 24.8785L175.054 25.0575C175.113 25.2459 175.255 25.3834 175.404 25.4826C175.556 25.584 175.748 25.6664 175.96 25.7345C176.386 25.8709 176.949 25.9651 177.584 26.017C178.858 26.1211 180.48 26.0598 182.016 25.7915L181.913 25.2005ZM175.625 24.8731C175.62 24.8575 175.609 24.7879 175.711 24.6293C175.808 24.4777 175.976 24.2955 176.214 24.0903C176.687 23.6822 177.377 23.2299 178.135 22.7988C178.89 22.3692 179.702 21.9673 180.408 21.6587C181.124 21.346 181.707 21.1409 182.016 21.0876L181.914 20.4964C181.526 20.5631 180.885 20.796 180.168 21.1088C179.443 21.4257 178.613 21.8368 177.838 22.2772C177.067 22.7161 176.338 23.1908 175.822 23.6362C175.565 23.8578 175.347 24.0839 175.205 24.306C175.068 24.5211 174.965 24.7905 175.056 25.0629L175.625 24.8731ZM204.794 14.36L205.093 14.3827L205.13 13.8963L204.679 14.0828L204.794 14.36ZM197.546 25.4L197.256 25.4761L197.542 26.569L197.836 25.4779L197.546 25.4ZM194.042 18.2L193.798 18.375L193.805 18.3847L193.813 18.3938L194.042 18.2ZM189.434 14.456L189.558 14.1829L189.165 14.0044L189.135 14.4346L189.434 14.456ZM189.146 18.488L188.847 18.4666L188.833 18.6558L188.998 18.7492L189.146 18.488ZM197.066 30.536L196.773 30.6014L196.826 30.836H197.066V30.536ZM197.834 30.536V30.836H198.086L198.129 30.5881L197.834 30.536ZM200.186 23L200.46 23.1214L200.463 23.1142L200.186 23ZM204.554 17.528L204.713 17.7824L204.842 17.702L204.853 17.5507L204.554 17.528ZM204.679 14.0828C203.244 14.6765 201.901 15.548 200.657 17.2554C199.421 18.9532 198.293 21.4647 197.256 25.3221L197.836 25.4779C198.863 21.6553 199.967 19.2228 201.142 17.6086C202.311 16.004 203.559 15.1955 204.909 14.6372L204.679 14.0828ZM197.836 25.3239C197.06 22.3643 195.891 19.9206 194.271 18.0062L193.813 18.3938C195.361 20.2234 196.496 22.5797 197.256 25.4761L197.836 25.3239ZM194.286 18.025C192.905 16.1022 191.18 14.92 189.558 14.1829L189.31 14.7291C190.856 15.432 192.491 16.5538 193.798 18.375L194.286 18.025ZM189.135 14.4346L188.847 18.4666L189.445 18.5094L189.733 14.4774L189.135 14.4346ZM188.998 18.7492C193.309 21.1859 195.774 26.1296 196.773 30.6014L197.359 30.4706C196.342 25.9184 193.814 20.7821 189.293 18.2268L188.998 18.7492ZM197.066 30.836H197.834V30.236H197.066V30.836ZM198.129 30.5881C198.557 28.1669 199.365 25.5981 200.46 23.1214L199.912 22.8786C198.799 25.3939 197.975 28.0091 197.538 30.4839L198.129 30.5881ZM200.463 23.1142C201.452 20.7124 202.856 18.943 204.713 17.7824L204.395 17.2736C202.412 18.513 200.935 20.3916 199.908 22.8858L200.463 23.1142ZM204.853 17.5507L205.093 14.3827L204.495 14.3373L204.255 17.5053L204.853 17.5507ZM213.262 28.424L213.384 28.6981L213.461 28.6635L213.509 28.5932L213.262 28.424ZM214.894 21.848L215.167 21.7251L215.162 21.7122L215.155 21.6998L214.894 21.848ZM210.526 17.816L210.708 17.578L210.706 17.576L210.526 17.816ZM209.374 15.944L209.671 15.9864L209.811 15.0037L209.15 15.7442L209.374 15.944ZM208.174 17.288L207.95 17.0882L207.938 17.102L207.927 17.1172L208.174 17.288ZM207.598 19.544L207.313 19.6389L207.324 19.6701L207.34 19.6983L207.598 19.544ZM207.934 19.976L208.193 20.1263L208.309 19.9268L208.146 19.7639L207.934 19.976ZM205.294 25.976L205.593 26.0009L205.593 25.9947L205.294 25.976ZM208.318 29.624L208.342 29.325L208.339 29.3248L208.318 29.624ZM213.694 25.304L213.848 25.5612L214.013 25.4625L213.992 25.2716L213.694 25.304ZM208.03 25.976L207.906 26.2493L207.913 26.2525L207.92 26.2552L208.03 25.976ZM208.846 20.504L208.986 20.2387L208.762 20.1207L208.608 20.3211L208.846 20.504ZM210.862 11.912L211.089 11.7162L210.875 11.4678L210.647 11.7029L210.862 11.912ZM209.182 13.64L208.967 13.4309L208.778 13.6251L208.952 13.8327L209.182 13.64ZM210.67 15.416L210.44 15.6087L210.656 15.8669L210.888 15.6222L210.67 15.416ZM212.35 13.64L212.568 13.8462L212.754 13.6494L212.577 13.4442L212.35 13.64ZM207.454 11.912L207.684 11.7193L207.467 11.4611L207.236 11.7058L207.454 11.912ZM205.774 13.688L205.556 13.4818L205.369 13.679L205.547 13.8842L205.774 13.688ZM207.31 15.464L207.083 15.6602L207.303 15.9148L207.531 15.667L207.31 15.464ZM208.942 13.688L209.163 13.891L209.341 13.6971L209.172 13.4953L208.942 13.688ZM213.509 28.5932C214.182 27.6085 214.876 26.5226 215.262 25.3758C215.652 24.2199 215.734 22.987 215.167 21.7251L214.62 21.9709C215.109 23.061 215.048 24.1321 214.693 25.1842C214.336 26.2454 213.685 27.2715 213.014 28.2548L213.509 28.5932ZM215.155 21.6998C213.915 19.5177 212.72 19.1218 210.708 17.578L210.343 18.054C212.46 19.6782 213.473 19.9543 214.633 21.9962L215.155 21.6998ZM210.706 17.576C210.462 17.3935 210.186 17.047 209.973 16.6903C209.869 16.515 209.786 16.3475 209.732 16.2095C209.706 16.1405 209.688 16.0836 209.679 16.0401C209.669 15.9926 209.672 15.9782 209.671 15.9864L209.077 15.9016C209.064 15.9938 209.076 16.0874 209.093 16.1663C209.11 16.2491 209.138 16.337 209.173 16.4255C209.241 16.6025 209.341 16.801 209.458 16.9977C209.689 17.385 210.013 17.8065 210.346 18.056L210.706 17.576ZM209.15 15.7442L207.95 17.0882L208.398 17.4878L209.598 16.1438L209.15 15.7442ZM207.927 17.1172C207.474 17.7713 207.202 18.4544 207.202 19.112H207.802C207.802 18.6176 208.009 18.0527 208.42 17.4588L207.927 17.1172ZM207.202 19.112C207.202 19.3135 207.268 19.5049 207.313 19.6389L207.882 19.4491C207.831 19.2951 207.802 19.1985 207.802 19.112H207.202ZM207.34 19.6983C207.415 19.8222 207.471 19.9077 207.531 19.9834C207.592 20.0586 207.652 20.1184 207.722 20.1881L208.146 19.7639C208.072 19.6896 208.036 19.6534 208 19.6086C207.965 19.5643 207.925 19.5058 207.855 19.3897L207.34 19.6983ZM207.674 19.8257C207.162 20.7094 206.518 21.6698 206.005 22.658C205.485 23.6613 205.07 24.7475 204.994 25.9573L205.593 25.9947C205.662 24.9005 206.038 23.8987 206.538 22.934C207.046 21.9542 207.649 21.0666 208.193 20.1263L207.674 19.8257ZM204.995 25.9511C204.839 27.8153 206.085 29.7653 208.296 29.9232L208.339 29.3248C206.519 29.1947 205.46 27.5927 205.593 26.0009L204.995 25.9511ZM208.294 29.923C210.153 30.0738 211.656 29.4659 213.384 28.6981L213.14 28.1499C211.411 28.9181 210.034 29.4622 208.342 29.325L208.294 29.923ZM213.539 25.0468C211.463 26.2927 209.401 26.1923 208.139 25.6968L207.92 26.2552C209.347 26.8157 211.605 26.9073 213.848 25.5612L213.539 25.0468ZM208.153 25.7027C207.743 25.5168 207.541 25.2218 207.466 24.8521C207.387 24.4639 207.447 23.9811 207.609 23.4538C207.931 22.4017 208.617 21.2938 209.084 20.6869L208.608 20.3211C208.115 20.9622 207.385 22.1343 207.035 23.2782C206.86 23.8489 206.771 24.4431 206.878 24.9714C206.989 25.5182 207.309 25.9792 207.906 26.2493L208.153 25.7027ZM208.706 20.7693C209.566 21.2235 210.695 21.8594 211.635 22.6479C212.583 23.4429 213.288 24.3502 213.396 25.3364L213.992 25.2716C213.859 24.0498 213.004 23.0131 212.021 22.1881C211.029 21.3566 209.853 20.6965 208.986 20.2387L208.706 20.7693ZM210.647 11.7029L208.967 13.4309L209.397 13.8491L211.077 12.1211L210.647 11.7029ZM208.952 13.8327L210.44 15.6087L210.9 15.2233L209.412 13.4473L208.952 13.8327ZM210.888 15.6222L212.568 13.8462L212.132 13.4338L210.452 15.2098L210.888 15.6222ZM212.577 13.4442L211.089 11.7162L210.634 12.1078L212.122 13.8358L212.577 13.4442ZM207.236 11.7058L205.556 13.4818L205.992 13.8942L207.672 12.1182L207.236 11.7058ZM205.547 13.8842L207.083 15.6602L207.537 15.2678L206.001 13.4918L205.547 13.8842ZM207.531 15.667L209.163 13.891L208.721 13.485L207.089 15.261L207.531 15.667ZM209.172 13.4953L207.684 11.7193L207.224 12.1047L208.712 13.8807L209.172 13.4953ZM221.878 29.624L221.837 29.9213L221.847 29.9224L221.878 29.624ZM231.142 27.224L231.407 27.3652L231.411 27.3582L231.142 27.224ZM230.758 24.152L231 23.9746L230.987 23.9561L230.971 23.9399L230.758 24.152ZM230.374 24.44L230.672 24.4791L230.68 24.4193L230.664 24.3611L230.374 24.44ZM224.806 26.888L224.828 27.1872L224.829 27.1871L224.806 26.888ZM219.958 26.264H219.658V26.4455L219.819 26.5298L219.958 26.264ZM220.726 18.104L220.98 18.2651L221.153 17.9924L220.868 17.8396L220.726 18.104ZM217.414 16.328L217.556 16.0636L217.114 15.8267V16.328H217.414ZM217.414 25.4H217.114V25.4333L217.122 25.4657L217.414 25.4ZM217.606 12.344L217.386 12.1405L217.208 12.3339L217.376 12.5361L217.606 12.344ZM219.286 14.36L219.056 14.5521L219.272 14.8112L219.504 14.5665L219.286 14.36ZM221.062 12.488L221.28 12.6945L221.466 12.4982L221.29 12.2928L221.062 12.488ZM219.334 10.472L219.562 10.2768L219.343 10.0207L219.114 10.2685L219.334 10.472ZM221.847 29.9224C224.402 30.19 226.567 29.9481 228.2 29.4489C229.815 28.9554 230.966 28.1916 231.407 27.3652L230.878 27.0828C230.551 27.6964 229.59 28.3966 228.025 28.8751C226.478 29.3479 224.395 29.586 221.91 29.3256L221.847 29.9224ZM231.411 27.3582C232.057 26.0657 231.564 24.7426 231 23.9746L230.517 24.3294C231.009 25.0014 231.38 26.0783 230.874 27.0898L231.411 27.3582ZM230.971 23.9399C230.903 23.8721 230.816 23.8172 230.726 23.7824C230.641 23.7491 230.517 23.7203 230.386 23.753C230.231 23.7916 230.112 23.9062 230.065 24.0696C230.025 24.2094 230.043 24.3651 230.085 24.5189L230.664 24.3611C230.65 24.3095 230.645 24.2738 230.643 24.2513C230.642 24.2283 230.645 24.225 230.642 24.2344C230.639 24.2456 230.629 24.2694 230.605 24.2932C230.58 24.3172 230.553 24.3297 230.531 24.335C230.512 24.3399 230.5 24.3384 230.499 24.3383C230.497 24.3381 230.501 24.3385 230.509 24.3416C230.527 24.3488 230.542 24.3599 230.546 24.3641L230.971 23.9399ZM230.077 24.4009C230.03 24.7574 229.826 25.065 229.481 25.3358C229.133 25.6091 228.657 25.8312 228.11 26.0086C227.017 26.3634 225.713 26.5173 224.783 26.5889L224.829 27.1871C225.771 27.1147 227.132 26.9566 228.295 26.5794C228.876 26.3908 229.426 26.1419 229.852 25.8077C230.281 25.471 230.599 25.0346 230.672 24.4791L230.077 24.4009ZM224.785 26.5888C222.836 26.7314 221.032 26.4875 220.098 25.9982L219.819 26.5298C220.901 27.0965 222.841 27.3326 224.828 27.1872L224.785 26.5888ZM220.258 26.264V20.648H219.658V26.264H220.258ZM220.258 20.648C220.258 19.8837 220.363 19.4198 220.495 19.0922C220.631 18.7543 220.794 18.5566 220.98 18.2651L220.473 17.9429C220.323 18.1794 220.102 18.4617 219.938 18.8678C219.77 19.2842 219.658 19.8283 219.658 20.648H220.258ZM220.868 17.8396L217.556 16.0636L217.273 16.5924L220.585 18.3684L220.868 17.8396ZM217.114 16.328V25.4H217.714V16.328H217.114ZM217.122 25.4657C217.402 26.7147 218.126 27.7638 218.999 28.5295C219.869 29.2931 220.905 29.7917 221.837 29.9211L221.92 29.3269C221.124 29.2163 220.192 28.7789 219.394 28.0785C218.599 27.3802 217.955 26.4373 217.707 25.3343L217.122 25.4657ZM217.376 12.5361L219.056 14.5521L219.517 14.1679L217.837 12.1519L217.376 12.5361ZM219.504 14.5665L221.28 12.6945L220.845 12.2815L219.069 14.1535L219.504 14.5665ZM221.29 12.2928L219.562 10.2768L219.107 10.6672L220.835 12.6832L221.29 12.2928ZM219.114 10.2685L217.386 12.1405L217.827 12.5475L219.555 10.6755L219.114 10.2685ZM241.149 26.168L241.448 26.1463L241.377 25.1683L240.889 26.0186L241.149 26.168ZM241.485 37.304L241.736 37.4688L241.785 37.3937V37.304H241.485ZM230.061 31.352L230.354 31.4184L230.426 31.101L230.103 31.055L230.061 31.352ZM229.725 31.304L229.767 31.007L229.572 30.9791L229.469 31.1474L229.725 31.304ZM243.069 15.464L243.367 15.4309L243.288 14.7145L242.835 15.2758L243.069 15.464ZM240.285 18.92L240.051 18.7318L239.938 18.8723L240.009 19.0382L240.285 18.92ZM240.621 20.024H240.921V19.9838L240.91 19.9451L240.621 20.024ZM240.861 24.296L241.098 24.4802L241.153 24.4098L241.16 24.3209L240.861 24.296ZM232.989 18.104L233.243 18.263L233.434 17.9587L233.1 17.8255L232.989 18.104ZM232.749 18.008L232.86 17.7295L232.755 17.6872L232.648 17.7256L232.749 18.008ZM230.109 25.448L229.819 25.5265L229.82 25.5297L230.109 25.448ZM235.677 29.528L235.661 29.8276L235.672 29.8281L235.682 29.828L235.677 29.528ZM240.85 26.1897C241.089 29.4922 241.185 32.7486 241.185 37.304H241.785C241.785 32.7394 241.689 29.4678 241.448 26.1463L240.85 26.1897ZM241.234 37.1392C240.697 37.9567 240.131 38.584 239.328 39.0134C238.522 39.4444 237.447 39.692 235.869 39.692V40.292C237.507 40.292 238.688 40.0356 239.61 39.5426C240.535 39.048 241.169 38.3313 241.736 37.4688L241.234 37.1392ZM235.869 39.692C233.201 39.692 231.552 38.9726 230.697 37.651C229.829 36.3103 229.71 34.2535 230.354 31.4184L229.768 31.2856C229.116 34.1625 229.189 36.4257 230.193 37.977C231.21 39.5474 233.113 40.292 235.869 40.292V39.692ZM230.103 31.055L229.767 31.007L229.683 31.601L230.019 31.649L230.103 31.055ZM229.469 31.1474C227.734 33.982 227.228 37.0223 228.156 39.3817C229.094 41.7683 231.458 43.364 235.245 43.364V42.764C231.64 42.764 229.54 41.2637 228.714 39.1623C227.878 37.0337 228.308 34.194 229.981 31.4606L229.469 31.1474ZM235.245 43.364C240.136 43.364 243.753 39.271 243.753 34.328H243.153C243.153 38.985 239.761 42.764 235.245 42.764V43.364ZM243.753 34.328C243.753 31.6585 243.669 29.0256 243.585 26.2729C243.501 23.5188 243.417 20.6429 243.417 17.48H242.817C242.817 20.6531 242.901 23.5371 242.985 26.2911C243.069 29.0464 243.153 31.6695 243.153 34.328H243.753ZM243.417 17.48C243.417 16.577 243.417 15.8837 243.367 15.4309L242.771 15.4971C242.816 15.9083 242.817 16.559 242.817 17.48H243.417ZM242.835 15.2758L240.051 18.7318L240.519 19.1082L243.303 15.6522L242.835 15.2758ZM240.009 19.0382C240.142 19.349 240.183 19.557 240.332 20.1029L240.91 19.9451C240.771 19.435 240.716 19.163 240.561 18.8018L240.009 19.0382ZM240.321 20.024C240.321 21.4512 240.394 22.3855 240.461 23.0367C240.495 23.3756 240.524 23.5988 240.545 23.8131C240.565 24.0161 240.572 24.1556 240.562 24.2711L241.16 24.3209C241.174 24.1484 241.163 23.9639 241.142 23.7544C241.123 23.5562 241.089 23.2784 241.057 22.9753C240.992 22.3425 240.921 21.4288 240.921 20.024H240.321ZM240.624 24.1118C239.703 25.2962 237.904 25.724 236.445 25.724V26.324C237.962 26.324 240.003 25.8878 241.098 24.4802L240.624 24.1118ZM236.445 25.724C235.191 25.724 234.252 25.4541 233.576 25.0201C232.904 24.5881 232.473 23.9817 232.249 23.2701C231.798 21.8335 232.192 19.9455 233.243 18.263L232.735 17.945C231.626 19.7185 231.156 21.7905 231.677 23.4499C231.939 24.2863 232.453 25.0119 233.252 25.5249C234.048 26.0359 235.107 26.324 236.445 26.324V25.724ZM233.1 17.8255L232.86 17.7295L232.638 18.2865L232.878 18.3825L233.1 17.8255ZM232.648 17.7256C231.257 18.224 230.356 19.472 229.901 20.918C229.445 22.3659 229.421 24.0565 229.819 25.5265L230.399 25.3695C230.029 24.0075 230.053 22.4341 230.473 21.098C230.894 19.76 231.697 18.704 232.85 18.2904L232.648 17.7256ZM229.82 25.5297C230.583 28.2235 232.875 29.6783 235.661 29.8276L235.693 29.2284C233.103 29.0897 231.075 27.7605 230.398 25.3663L229.82 25.5297ZM235.682 29.828C237.135 29.8033 238.239 29.5192 239.152 28.9278C240.061 28.3386 240.75 27.4641 241.409 26.3174L240.889 26.0186C240.252 27.1279 239.621 27.9094 238.826 28.4242C238.035 28.9368 237.051 29.2047 235.672 29.228L235.682 29.828Z" fill="white"/>
</svg>
