<svg width="375" height="504" viewBox="0 0 375 504" fill="none" xmlns="http://www.w3.org/2000/svg">
<g clip-path="url(#clip0)">
<path d="M289.409 504H86.5907C84.8497 504 83.1088 503.13 81.3679 502.259L-62.2591 358.632C-63.1295 357.762 -64 356.021 -64 353.409V150.591C-64 148.85 -63.1295 147.109 -62.2591 145.368L81.3679 1.74093C83.1088 0.870466 84.8497 0 86.5907 0H290.28C292.021 0 293.762 0.870466 295.503 1.74093L439.13 145.368C440 146.238 440.87 147.979 440.87 150.591V353.409C440.87 355.15 440 356.891 439.13 358.632L294.632 502.259C293.762 504 292.021 504 289.409 504ZM89.2021 490.943H286.798L426.073 350.798V153.202L286.798 13.057H89.2021L-50.0725 153.202V350.798L89.2021 490.943Z" fill="#FAFAFA"/>
<path d="M188.435 504C186.694 504 184.953 503.13 184.083 502.259L81.3678 417.824C79.6268 416.953 78.7563 414.342 78.7563 412.601V91.399C78.7563 89.6581 79.6268 87.0467 81.3678 86.1762L184.083 1.74097C186.694 3.90708e-05 190.176 3.90708e-05 192.787 1.74097L295.503 86.1762C297.243 87.0467 298.114 89.6581 298.114 91.399V412.601C298.114 414.342 297.243 416.953 295.503 417.824L192.787 502.259C191.047 504 189.306 504 188.435 504ZM92.6838 409.119L188.435 488.332L284.186 409.119V94.8809L188.435 15.6684L92.6838 94.8809V409.119Z" fill="#FAFAFA"/>
<path d="M348.601 361.244H27.399C25.6581 361.244 23.0467 360.373 22.1762 358.632L-62.259 256.788C-63.9999 254.176 -63.9999 250.694 -62.259 248.083L22.1762 145.368C23.0467 143.627 25.6581 142.757 27.399 142.757H348.601C350.342 142.757 352.953 143.627 353.824 145.368L438.259 248.083C440 250.694 440 254.176 438.259 256.788L353.824 358.632C352.953 360.373 351.213 361.244 348.601 361.244ZM30.8809 348.187H345.119L424.332 252.435L345.119 156.684H30.8809L-48.3315 252.435L30.8809 348.187Z" fill="#FAFAFA"/>
<path d="M147.523 444.808C146.653 444.808 146.653 444.808 147.523 444.808L14.3419 432.622C10.86 432.622 8.24865 430.01 8.24865 426.529L-4.80835 294.218C-4.80835 292.477 -3.93788 289.865 -3.06742 288.995L224.124 60.9326C225.865 59.1917 227.606 59.1917 229.347 59.1917L362.528 72.2487C366.01 72.2487 368.622 74.8601 368.622 78.342L380.808 210.653C380.808 212.394 379.938 215.005 379.067 215.876L151.876 443.067C151.005 443.938 149.264 444.808 147.523 444.808ZM21.3056 419.565L144.912 430.881L366.881 208.912L355.565 85.3057L231.958 73.1192L9.11911 295.959L21.3056 419.565Z" fill="#FAFAFA"/>
<path d="M229.347 444.808C227.606 444.808 225.865 443.938 224.124 443.067L-3.06742 215.876C-4.80835 214.135 -4.80835 212.394 -4.80835 210.653L8.24865 78.342C8.24865 74.8601 10.86 72.2487 14.3419 72.2487L146.653 60.0622C148.394 60.0622 151.005 60.9327 151.876 61.8031L379.067 288.995C380.808 290.736 380.808 292.477 380.808 294.218L368.622 426.529C368.622 430.01 366.01 432.622 362.528 432.622L229.347 444.808ZM9.11911 208.912L231.958 430.881L355.565 419.565L366.881 295.959L144.912 73.1192L21.3056 85.3057L9.11911 208.912Z" fill="#FAFAFA"/>
</g>
<defs>
<clipPath id="clip0">
<rect width="504" height="504" fill="white" transform="translate(-64)"/>
</clipPath>
</defs>
</svg>
