<svg width="28" height="28" viewBox="0 0 28 28" fill="none" xmlns="http://www.w3.org/2000/svg">
<path fill-rule="evenodd" clip-rule="evenodd" d="M8.90468 21.8453L10.6735 23.6294C11.1047 24.0644 11.1047 24.7657 10.6735 25.2007C10.2369 25.641 9.52508 25.641 9.08853 25.2007L6.04685 22.1326C5.27393 21.353 5.27393 20.096 6.04685 19.3164L9.08853 16.2483C9.52508 15.808 10.2369 15.808 10.6735 16.2483C11.1047 16.6833 11.1047 17.3846 10.6735 17.8196L8.90468 19.6038H18.4444C20.2854 19.6038 21.7778 18.0984 21.7778 16.2415V13.9904C21.7778 13.3767 22.2752 12.8792 22.8889 12.8792C23.5025 12.8792 24 13.3767 24 13.9904V16.2415C24 19.3364 21.5127 21.8453 18.4444 21.8453H8.90468ZM19.0964 6.15586L17.3265 4.37063C16.8953 3.93563 16.8953 3.23433 17.3265 2.79934C17.7631 2.359 18.4749 2.359 18.9115 2.79934L21.9531 5.8674C22.7261 6.64703 22.7261 7.90396 21.9531 8.68359L18.9115 11.7517C18.4749 12.192 17.7631 12.192 17.3265 11.7517C16.8953 11.3167 16.8953 10.6154 17.3265 10.1804L19.0942 8.39737H9.55556C7.71461 8.39737 6.22222 9.9027 6.22222 11.7596V14.0108C6.22222 14.6244 5.72476 15.1219 5.11111 15.1219C4.49746 15.1219 4 14.6244 4 14.0108V11.7596C4 8.66475 6.48731 6.15586 9.55556 6.15586H19.0964Z" fill="#CACBCE"/>
</svg>
