<svg width="177" height="38" viewBox="0 0 177 38" fill="none" xmlns="http://www.w3.org/2000/svg">
<path d="M0.804 10.314H1.756L3.856 1.914H2.904L3.072 1.228H6.572L6.404 1.914H5.452L3.352 10.314H4.304L4.136 11H0.636L0.804 10.314ZM7.10608 11.168C6.73274 11.168 6.46208 11.07 6.29408 10.874C6.13541 10.678 6.05608 10.4587 6.05608 10.216C6.05608 10.1133 6.06541 9.99667 6.08408 9.866C6.11208 9.73533 6.14008 9.61867 6.16808 9.516L8.15608 1.564H6.95208L7.10608 0.933999L9.96208 0.359999L7.52608 10.118L7.77808 10.23L9.23408 8.634L9.65408 8.914L8.74408 10.076C8.41741 10.5147 8.12341 10.8087 7.86208 10.958C7.60074 11.098 7.34874 11.168 7.10608 11.168ZM19.1437 11.168C18.957 11.168 18.7983 11.14 18.6677 11.084C18.537 11.028 18.4297 10.958 18.3457 10.874C18.2617 10.7807 18.201 10.678 18.1637 10.566C18.1263 10.454 18.1077 10.3373 18.1077 10.216C18.1077 10.1133 18.117 10.0013 18.1357 9.88C18.1637 9.74933 18.1917 9.63267 18.2197 9.53L19.3817 5.302C19.4097 5.19 19.4237 5.08733 19.4237 4.994C19.4237 4.73267 19.3023 4.602 19.0597 4.602C18.8263 4.602 18.565 4.72333 18.2757 4.966C17.9957 5.19933 17.7157 5.51667 17.4357 5.918C17.1557 6.31933 16.8943 6.79067 16.6517 7.332C16.409 7.864 16.213 8.42867 16.0637 9.026L15.5737 11H14.0617L15.4617 5.33C15.499 5.19 15.5177 5.078 15.5177 4.994C15.5177 4.73267 15.401 4.602 15.1677 4.602C14.9437 4.602 14.6917 4.72333 14.4117 4.966C14.1317 5.19933 13.8517 5.51667 13.5717 5.918C13.2917 6.31933 13.0257 6.79067 12.7737 7.332C12.531 7.864 12.335 8.42867 12.1857 9.026L11.6957 11H10.1837L11.7377 4.756H10.5337L10.6877 4.126L13.4317 3.552L12.7737 6.17L12.9137 6.212C13.1003 5.86667 13.2917 5.53533 13.4877 5.218C13.6837 4.90067 13.8937 4.62067 14.1177 4.378C14.351 4.126 14.5983 3.92533 14.8597 3.776C15.1303 3.62667 15.429 3.552 15.7557 3.552C16.1477 3.552 16.4323 3.66867 16.6097 3.902C16.7963 4.126 16.8897 4.434 16.8897 4.826C16.8897 5.04067 16.8617 5.26467 16.8057 5.498L16.6517 6.156L16.7917 6.198C16.9783 5.85267 17.1697 5.52133 17.3657 5.204C17.5617 4.88667 17.7717 4.60667 17.9957 4.364C18.229 4.12133 18.4763 3.92533 18.7377 3.776C19.0083 3.62667 19.3117 3.552 19.6477 3.552C20.0957 3.552 20.4177 3.67333 20.6137 3.916C20.819 4.14933 20.9217 4.45733 20.9217 4.84C20.9217 4.98 20.9077 5.12467 20.8797 5.274C20.861 5.414 20.8283 5.56333 20.7817 5.722L19.5777 10.118L19.8297 10.23L21.2857 8.634L21.7057 8.914L20.7957 10.076C20.469 10.496 20.1797 10.7853 19.9277 10.944C19.6757 11.0933 19.4143 11.168 19.1437 11.168ZM27.3516 11.168C26.9783 11.168 26.7123 11.07 26.5536 10.874C26.3949 10.678 26.3156 10.4587 26.3156 10.216C26.3156 10.1133 26.3249 10.0013 26.3436 9.88C26.3716 9.74933 26.3996 9.63267 26.4276 9.53L27.5896 5.302C27.6176 5.19 27.6316 5.08733 27.6316 4.994C27.6316 4.73267 27.5103 4.602 27.2676 4.602C27.0436 4.602 26.7869 4.72333 26.4976 4.966C26.2176 5.19933 25.9376 5.51667 25.6576 5.918C25.3776 6.31933 25.1116 6.79067 24.8596 7.332C24.6169 7.864 24.4209 8.42867 24.2716 9.026L23.7816 11H22.2696L23.8236 4.756H22.6196L22.7736 4.126L25.5176 3.552L24.8596 6.17L24.9996 6.212C25.1863 5.86667 25.3776 5.53533 25.5736 5.218C25.7696 4.90067 25.9796 4.62067 26.2036 4.378C26.4369 4.126 26.6889 3.92533 26.9596 3.776C27.2303 3.62667 27.5336 3.552 27.8696 3.552C28.3176 3.552 28.6396 3.67333 28.8356 3.916C29.0316 4.14933 29.1296 4.45733 29.1296 4.84C29.1296 4.97067 29.1156 5.11067 29.0876 5.26C29.0689 5.40933 29.0363 5.56333 28.9896 5.722L27.7856 10.118L28.0376 10.23L29.4936 8.634L29.9136 8.914L29.0036 10.076C28.6863 10.496 28.3969 10.7853 28.1356 10.944C27.8836 11.0933 27.6223 11.168 27.3516 11.168ZM31.7887 11.168C31.4154 11.168 31.1447 11.07 30.9767 10.874C30.8181 10.678 30.7387 10.4587 30.7387 10.216C30.7387 10.1133 30.7527 9.99667 30.7807 9.866C30.8087 9.73533 30.8321 9.61867 30.8507 9.516L32.0407 4.756H30.8367L30.9907 4.126L33.8467 3.552L32.2087 10.118L32.4607 10.23L33.9167 8.634L34.3367 8.914L33.4267 10.076C33.1001 10.5147 32.8061 10.8087 32.5447 10.958C32.2834 11.098 32.0314 11.168 31.7887 11.168ZM33.4547 2.25C33.1841 2.25 32.9787 2.18 32.8387 2.04C32.6987 1.89067 32.6287 1.72267 32.6287 1.536C32.6287 1.43333 32.6427 1.33067 32.6707 1.228C32.7267 0.994666 32.8434 0.807999 33.0207 0.668C33.2074 0.528 33.4314 0.458 33.6927 0.458C33.9634 0.458 34.1687 0.532666 34.3087 0.681999C34.4487 0.821999 34.5187 0.985333 34.5187 1.172C34.5187 1.21867 34.5141 1.27 34.5047 1.326C34.5047 1.382 34.4954 1.43333 34.4767 1.48C34.4207 1.71333 34.2994 1.9 34.1127 2.04C33.9354 2.18 33.7161 2.25 33.4547 2.25ZM42.7279 11.168C42.5039 11.168 42.3032 11.1167 42.1259 11.014C41.9485 10.9207 41.7945 10.7247 41.6639 10.426L40.6139 7.976C41.0339 7.74267 41.3979 7.5 41.7059 7.248C42.0139 6.98667 42.2659 6.73 42.4619 6.478C42.6672 6.226 42.8165 5.988 42.9099 5.764C43.0032 5.53067 43.0499 5.32067 43.0499 5.134C43.0499 4.77933 42.9005 4.602 42.6019 4.602C42.3685 4.602 42.1119 4.72333 41.8319 4.966C41.5519 5.20867 41.2765 5.53533 41.0059 5.946C40.7352 6.34733 40.4785 6.814 40.2359 7.346C40.0025 7.878 39.8112 8.438 39.6619 9.026L39.1579 11H37.6459L40.0119 1.564H38.8079L38.9619 0.933999L41.8179 0.359999L40.2359 6.17L40.3759 6.212C40.5719 5.848 40.7679 5.50733 40.9639 5.19C41.1692 4.86333 41.3839 4.57867 41.6079 4.336C41.8412 4.09333 42.0885 3.902 42.3499 3.762C42.6205 3.622 42.9192 3.552 43.2459 3.552C43.6939 3.552 44.0159 3.67333 44.2119 3.916C44.4079 4.15867 44.5059 4.46667 44.5059 4.84C44.5059 5.18533 44.4265 5.50733 44.2679 5.806C44.1092 6.10467 43.9085 6.37533 43.6659 6.618C43.4232 6.86067 43.1619 7.07533 42.8819 7.262C42.6019 7.43933 42.3359 7.584 42.0839 7.696L43.1759 10.146H43.3719L44.7299 8.634L45.1499 8.914L44.2399 10.104C44.0812 10.3187 43.9365 10.496 43.8059 10.636C43.6752 10.7667 43.5539 10.874 43.4419 10.958C43.3299 11.0327 43.2132 11.084 43.0919 11.112C42.9799 11.1493 42.8585 11.168 42.7279 11.168ZM46.9235 11.168C46.5502 11.168 46.2795 11.07 46.1115 10.874C45.9528 10.678 45.8735 10.4587 45.8735 10.216C45.8735 10.1133 45.8875 9.99667 45.9155 9.866C45.9435 9.73533 45.9668 9.61867 45.9855 9.516L47.1755 4.756H45.9715L46.1255 4.126L48.9815 3.552L47.3435 10.118L47.5955 10.23L49.0515 8.634L49.4715 8.914L48.5615 10.076C48.2348 10.5147 47.9408 10.8087 47.6795 10.958C47.4182 11.098 47.1662 11.168 46.9235 11.168ZM48.5895 2.25C48.3188 2.25 48.1135 2.18 47.9735 2.04C47.8335 1.89067 47.7635 1.72267 47.7635 1.536C47.7635 1.43333 47.7775 1.33067 47.8055 1.228C47.8615 0.994666 47.9782 0.807999 48.1555 0.668C48.3422 0.528 48.5662 0.458 48.8275 0.458C49.0982 0.458 49.3035 0.532666 49.4435 0.681999C49.5835 0.821999 49.6535 0.985333 49.6535 1.172C49.6535 1.21867 49.6488 1.27 49.6395 1.326C49.6395 1.382 49.6302 1.43333 49.6115 1.48C49.5555 1.71333 49.4342 1.9 49.2475 2.04C49.0702 2.18 48.8508 2.25 48.5895 2.25ZM58.9698 11.168C58.7832 11.168 58.6245 11.14 58.4938 11.084C58.3632 11.028 58.2558 10.958 58.1718 10.874C58.0878 10.7807 58.0272 10.678 57.9898 10.566C57.9525 10.454 57.9338 10.3373 57.9338 10.216C57.9338 10.1133 57.9432 10.0013 57.9618 9.88C57.9898 9.74933 58.0178 9.63267 58.0458 9.53L59.2078 5.302C59.2358 5.19 59.2498 5.08733 59.2498 4.994C59.2498 4.73267 59.1285 4.602 58.8858 4.602C58.6525 4.602 58.3912 4.72333 58.1018 4.966C57.8218 5.19933 57.5418 5.51667 57.2618 5.918C56.9818 6.31933 56.7205 6.79067 56.4778 7.332C56.2352 7.864 56.0392 8.42867 55.8898 9.026L55.3998 11H53.8878L55.2878 5.33C55.3252 5.19 55.3438 5.078 55.3438 4.994C55.3438 4.73267 55.2272 4.602 54.9938 4.602C54.7698 4.602 54.5178 4.72333 54.2378 4.966C53.9578 5.19933 53.6778 5.51667 53.3978 5.918C53.1178 6.31933 52.8518 6.79067 52.5998 7.332C52.3572 7.864 52.1612 8.42867 52.0118 9.026L51.5218 11H50.0098L51.5638 4.756H50.3598L50.5138 4.126L53.2578 3.552L52.5998 6.17L52.7398 6.212C52.9265 5.86667 53.1178 5.53533 53.3138 5.218C53.5098 4.90067 53.7198 4.62067 53.9438 4.378C54.1772 4.126 54.4245 3.92533 54.6858 3.776C54.9565 3.62667 55.2552 3.552 55.5818 3.552C55.9738 3.552 56.2585 3.66867 56.4358 3.902C56.6225 4.126 56.7158 4.434 56.7158 4.826C56.7158 5.04067 56.6878 5.26467 56.6318 5.498L56.4778 6.156L56.6178 6.198C56.8045 5.85267 56.9958 5.52133 57.1918 5.204C57.3878 4.88667 57.5978 4.60667 57.8218 4.364C58.0552 4.12133 58.3025 3.92533 58.5638 3.776C58.8345 3.62667 59.1378 3.552 59.4738 3.552C59.9218 3.552 60.2438 3.67333 60.4398 3.916C60.6452 4.14933 60.7478 4.45733 60.7478 4.84C60.7478 4.98 60.7338 5.12467 60.7058 5.274C60.6872 5.414 60.6545 5.56333 60.6078 5.722L59.4038 10.118L59.6558 10.23L61.1118 8.634L61.5318 8.914L60.6218 10.076C60.2952 10.496 60.0058 10.7853 59.7538 10.944C59.5018 11.0933 59.2405 11.168 58.9698 11.168ZM65.9306 4.392H65.3426L65.5106 3.72H68.4646L68.2966 4.392H67.4846L67.7366 9.39H67.8626L70.5926 4.392H69.8086L69.9766 3.72H72.2306L72.0486 4.392H71.5026L67.6106 11H66.4486L65.9306 4.392ZM74.1161 10.51C74.3588 10.51 74.5734 10.4587 74.7601 10.356C74.9561 10.244 75.1288 10.0947 75.2781 9.908C75.4368 9.712 75.5674 9.488 75.6701 9.236C75.7821 8.97467 75.8754 8.69467 75.9501 8.396C76.0808 7.88267 76.1881 7.458 76.2721 7.122C76.3561 6.77667 76.4214 6.49667 76.4681 6.282C76.5148 6.058 76.5474 5.88067 76.5661 5.75C76.5848 5.61933 76.5941 5.50267 76.5941 5.4C76.5941 5.05467 76.5241 4.77 76.3841 4.546C76.2441 4.322 75.9968 4.21 75.6421 4.21C75.3994 4.21 75.1801 4.266 74.9841 4.378C74.7974 4.48067 74.6248 4.63 74.4661 4.826C74.3168 5.01267 74.1861 5.23667 74.0741 5.498C73.9714 5.75 73.8828 6.02533 73.8081 6.324C73.6774 6.83733 73.5701 7.26667 73.4861 7.612C73.4021 7.948 73.3368 8.228 73.2901 8.452C73.2434 8.66667 73.2108 8.844 73.1921 8.984C73.1734 9.11467 73.1641 9.22667 73.1641 9.32C73.1641 9.66533 73.2341 9.95 73.3741 10.174C73.5141 10.398 73.7614 10.51 74.1161 10.51ZM74.0461 11.168C73.2808 11.168 72.7021 10.9347 72.3101 10.468C71.9274 9.992 71.7361 9.35267 71.7361 8.55C71.7361 8.00867 71.8248 7.444 72.0021 6.856C72.1794 6.268 72.4361 5.73133 72.7721 5.246C73.1081 4.75133 73.5234 4.34533 74.0181 4.028C74.5128 3.71067 75.0774 3.552 75.7121 3.552C76.4774 3.552 77.0514 3.79 77.4341 4.266C77.8261 4.73267 78.0221 5.36733 78.0221 6.17C78.0221 6.71133 77.9334 7.276 77.7561 7.864C77.5788 8.452 77.3221 8.99333 76.9861 9.488C76.6501 9.97333 76.2348 10.3747 75.7401 10.692C75.2454 11.0093 74.6808 11.168 74.0461 11.168ZM80.0039 11.168C79.4252 11.168 79.0099 11.0747 78.7579 10.888C78.5152 10.7013 78.3939 10.4587 78.3939 10.16C78.3939 9.936 78.4685 9.73533 78.6179 9.558C78.7672 9.37133 78.9819 9.278 79.2619 9.278C79.4672 9.278 79.6399 9.33867 79.7799 9.46C79.9199 9.58133 79.9899 9.754 79.9899 9.978C79.9899 10.0993 79.9619 10.2253 79.9059 10.356C79.8499 10.4867 79.7799 10.5893 79.6959 10.664L79.7799 10.79C79.9759 10.7713 80.1719 10.734 80.3679 10.678C80.5732 10.622 80.7599 10.538 80.9279 10.426C81.0959 10.314 81.2312 10.174 81.3339 10.006C81.4365 9.838 81.4879 9.63267 81.4879 9.39C81.4879 9.194 81.4552 9.01667 81.3899 8.858C81.3245 8.69933 81.2359 8.54533 81.1239 8.396C81.0212 8.24667 80.8999 8.09733 80.7599 7.948C80.6199 7.79867 80.4752 7.64 80.3259 7.472C80.1485 7.25733 79.9852 7.02867 79.8359 6.786C79.6865 6.54333 79.6119 6.24467 79.6119 5.89C79.6119 5.526 79.6865 5.19933 79.8359 4.91C79.9852 4.62067 80.1859 4.378 80.4379 4.182C80.6899 3.97667 80.9839 3.82267 81.3199 3.72C81.6652 3.608 82.0292 3.552 82.4119 3.552C82.9812 3.552 83.3872 3.64533 83.6299 3.832C83.8725 4.01867 83.9939 4.26133 83.9939 4.56C83.9939 4.784 83.9192 4.98933 83.7699 5.176C83.6205 5.35333 83.4059 5.442 83.1259 5.442C82.9205 5.442 82.7479 5.38133 82.6079 5.26C82.4679 5.13867 82.3979 4.966 82.3979 4.742C82.3979 4.62067 82.4259 4.49467 82.4819 4.364C82.5379 4.23333 82.6079 4.13067 82.6919 4.056L82.6079 3.93C82.4212 3.94867 82.2345 3.99067 82.0479 4.056C81.8612 4.112 81.6932 4.196 81.5439 4.308C81.4039 4.42 81.2872 4.56 81.1939 4.728C81.1099 4.896 81.0679 5.09667 81.0679 5.33C81.0679 5.526 81.1005 5.708 81.1659 5.876C81.2312 6.03467 81.3199 6.18867 81.4319 6.338C81.5439 6.48733 81.6699 6.63667 81.8099 6.786C81.9499 6.93533 82.0945 7.094 82.2439 7.262C82.4119 7.46733 82.5705 7.69133 82.7199 7.934C82.8692 8.16733 82.9439 8.466 82.9439 8.83C82.9439 9.20333 82.8645 9.53467 82.7059 9.824C82.5472 10.1133 82.3325 10.3607 82.0619 10.566C81.8005 10.762 81.4879 10.9113 81.1239 11.014C80.7692 11.1167 80.3959 11.168 80.0039 11.168ZM85.7106 11.168C85.3373 11.168 85.0666 11.07 84.8986 10.874C84.7399 10.678 84.6606 10.4587 84.6606 10.216C84.6606 10.1133 84.6746 9.99667 84.7026 9.866C84.7306 9.73533 84.7539 9.61867 84.7726 9.516L85.9626 4.756H84.7586L84.9126 4.126L87.7686 3.552L86.1306 10.118L86.3826 10.23L87.8386 8.634L88.2586 8.914L87.3486 10.076C87.0219 10.5147 86.7279 10.8087 86.4666 10.958C86.2053 11.098 85.9533 11.168 85.7106 11.168ZM87.3766 2.25C87.1059 2.25 86.9006 2.18 86.7606 2.04C86.6206 1.89067 86.5506 1.72267 86.5506 1.536C86.5506 1.43333 86.5646 1.33067 86.5926 1.228C86.6486 0.994666 86.7653 0.807999 86.9426 0.668C87.1293 0.528 87.3533 0.458 87.6146 0.458C87.8853 0.458 88.0906 0.532666 88.2306 0.681999C88.3706 0.821999 88.4406 0.985333 88.4406 1.172C88.4406 1.21867 88.4359 1.27 88.4266 1.326C88.4266 1.382 88.4173 1.43333 88.3986 1.48C88.3426 1.71333 88.2213 1.9 88.0346 2.04C87.8573 2.18 87.6379 2.25 87.3766 2.25ZM90.183 11.168C89.819 11.168 89.5576 11.0747 89.399 10.888C89.2403 10.692 89.161 10.4727 89.161 10.23C89.161 10.118 89.175 9.99667 89.203 9.866C89.231 9.726 89.2543 9.60933 89.273 9.516L90.533 4.448H89.315L89.497 3.72H90.071C90.3696 3.72 90.5936 3.67333 90.743 3.58C90.8923 3.47733 91.0323 3.30933 91.163 3.076L91.905 1.774H92.703L92.227 3.72H93.935L93.753 4.448H92.045L90.645 10.076L90.883 10.216L92.731 8.704L93.109 9.054L91.793 10.286C91.597 10.4727 91.4243 10.6267 91.275 10.748C91.1256 10.86 90.9903 10.9487 90.869 11.014C90.7476 11.0793 90.631 11.1213 90.519 11.14C90.4163 11.1587 90.3043 11.168 90.183 11.168ZM95.4362 11.168C94.9136 11.168 94.5356 10.986 94.3022 10.622C94.0782 10.258 93.9662 9.74 93.9662 9.068C93.9662 8.48933 94.0502 7.878 94.2182 7.234C94.3862 6.58067 94.6242 5.98333 94.9322 5.442C95.2496 4.89133 95.6322 4.43867 96.0802 4.084C96.5376 3.72933 97.0509 3.552 97.6202 3.552C98.0309 3.552 98.3669 3.65467 98.6282 3.86C98.8896 4.06533 99.0716 4.392 99.1742 4.84H99.3142L100.028 3.72H100.784L99.1602 10.118L99.4122 10.23L100.868 8.634L101.288 8.914L100.378 10.076C100.052 10.4867 99.7716 10.7713 99.5382 10.93C99.3142 11.0887 99.0809 11.168 98.8382 11.168C98.4836 11.168 98.2316 11.0747 98.0822 10.888C97.9422 10.7013 97.8722 10.4867 97.8722 10.244C97.8722 10.1227 97.8816 9.992 97.9002 9.852C97.9282 9.712 97.9562 9.59067 97.9842 9.488L98.1942 8.648L98.0542 8.606C97.8862 8.97 97.7136 9.31067 97.5362 9.628C97.3589 9.936 97.1629 10.2067 96.9482 10.44C96.7429 10.664 96.5142 10.8413 96.2622 10.972C96.0102 11.1027 95.7349 11.168 95.4362 11.168ZM96.0242 10.104C96.2856 10.104 96.5562 9.964 96.8362 9.684C97.1162 9.39467 97.3776 9.04933 97.6202 8.648C97.8722 8.23733 98.0916 7.808 98.2782 7.36C98.4649 6.912 98.6002 6.52467 98.6842 6.198L98.7542 5.918C98.8662 5.47 98.8662 5.106 98.7542 4.826C98.6422 4.546 98.3996 4.406 98.0262 4.406C97.5969 4.406 97.1909 4.616 96.8082 5.036C96.4349 5.44667 96.1316 6.07667 95.8982 6.926C95.8516 7.08467 95.8049 7.26667 95.7582 7.472C95.7209 7.668 95.6836 7.86867 95.6462 8.074C95.6182 8.27933 95.5902 8.47533 95.5622 8.662C95.5436 8.84867 95.5342 9.012 95.5342 9.152C95.5342 9.45067 95.5669 9.684 95.6322 9.852C95.6976 10.02 95.8282 10.104 96.0242 10.104ZM101.214 13.968C100.831 13.968 100.528 13.8793 100.304 13.702C100.071 13.5247 99.9539 13.2913 99.9539 13.002C99.9539 12.7407 100.038 12.512 100.206 12.316C100.374 12.12 100.603 12.022 100.892 12.022C101.125 12.022 101.307 12.0873 101.438 12.218C101.569 12.3487 101.634 12.5167 101.634 12.722C101.634 12.8527 101.606 12.9787 101.55 13.1C101.494 13.2307 101.424 13.3287 101.34 13.394L101.438 13.478C101.746 13.3473 102.04 13.1233 102.32 12.806C102.609 12.498 102.913 12.036 103.23 11.42L102.53 4.392H101.942L102.11 3.72H105.036L104.882 4.392H104.07L104.392 9.39H104.518L107.29 4.392H106.506L106.674 3.72H108.9L108.718 4.392H108.172L103.706 11.938C103.258 12.694 102.824 13.2213 102.404 13.52C101.984 13.8187 101.587 13.968 101.214 13.968ZM109.814 11.168C109.441 11.168 109.17 11.07 109.002 10.874C108.843 10.678 108.764 10.4587 108.764 10.216C108.764 10.1133 108.778 9.99667 108.806 9.866C108.834 9.73533 108.857 9.61867 108.876 9.516L110.066 4.756H108.862L109.016 4.126L111.872 3.552L110.234 10.118L110.486 10.23L111.942 8.634L112.362 8.914L111.452 10.076C111.125 10.5147 110.831 10.8087 110.57 10.958C110.309 11.098 110.057 11.168 109.814 11.168ZM111.48 2.25C111.209 2.25 111.004 2.18 110.864 2.04C110.724 1.89067 110.654 1.72267 110.654 1.536C110.654 1.43333 110.668 1.33067 110.696 1.228C110.752 0.994666 110.869 0.807999 111.046 0.668C111.233 0.528 111.457 0.458 111.718 0.458C111.989 0.458 112.194 0.532666 112.334 0.681999C112.474 0.821999 112.544 0.985333 112.544 1.172C112.544 1.21867 112.539 1.27 112.53 1.326C112.53 1.382 112.521 1.43333 112.502 1.48C112.446 1.71333 112.325 1.9 112.138 2.04C111.961 2.18 111.741 2.25 111.48 2.25ZM114.537 13.968C114.052 13.968 113.697 13.8793 113.473 13.702C113.249 13.5247 113.137 13.3007 113.137 13.03C113.137 12.778 113.217 12.5587 113.375 12.372C113.525 12.1947 113.735 12.106 114.005 12.106C114.22 12.106 114.397 12.1713 114.537 12.302C114.668 12.4327 114.733 12.6007 114.733 12.806C114.733 12.918 114.705 13.0393 114.649 13.17C114.584 13.3007 114.481 13.408 114.341 13.492L114.411 13.604C114.738 13.5853 114.99 13.436 115.167 13.156C115.335 12.8853 115.485 12.4887 115.615 11.966L117.421 4.756H116.217L116.371 4.126L119.227 3.552L117.225 11.574C117.039 12.3393 116.707 12.9273 116.231 13.338C115.755 13.758 115.191 13.968 114.537 13.968ZM118.835 2.25C118.565 2.25 118.359 2.18 118.219 2.04C118.079 1.89067 118.009 1.72267 118.009 1.536C118.009 1.43333 118.023 1.33067 118.051 1.228C118.107 0.994666 118.224 0.807999 118.401 0.668C118.588 0.528 118.812 0.458 119.073 0.458C119.344 0.458 119.549 0.532666 119.689 0.681999C119.829 0.821999 119.899 0.985333 119.899 1.172C119.899 1.21867 119.895 1.27 119.885 1.326C119.885 1.382 119.876 1.43333 119.857 1.48C119.801 1.71333 119.68 1.9 119.493 2.04C119.316 2.18 119.097 2.25 118.835 2.25ZM122.323 10.51C122.566 10.51 122.78 10.4587 122.967 10.356C123.163 10.244 123.336 10.0947 123.485 9.908C123.644 9.712 123.774 9.488 123.877 9.236C123.989 8.97467 124.082 8.69467 124.157 8.396C124.288 7.88267 124.395 7.458 124.479 7.122C124.563 6.77667 124.628 6.49667 124.675 6.282C124.722 6.058 124.754 5.88067 124.773 5.75C124.792 5.61933 124.801 5.50267 124.801 5.4C124.801 5.05467 124.731 4.77 124.591 4.546C124.451 4.322 124.204 4.21 123.849 4.21C123.606 4.21 123.387 4.266 123.191 4.378C123.004 4.48067 122.832 4.63 122.673 4.826C122.524 5.01267 122.393 5.23667 122.281 5.498C122.178 5.75 122.09 6.02533 122.015 6.324C121.884 6.83733 121.777 7.26667 121.693 7.612C121.609 7.948 121.544 8.228 121.497 8.452C121.45 8.66667 121.418 8.844 121.399 8.984C121.38 9.11467 121.371 9.22667 121.371 9.32C121.371 9.66533 121.441 9.95 121.581 10.174C121.721 10.398 121.968 10.51 122.323 10.51ZM122.253 11.168C121.488 11.168 120.909 10.9347 120.517 10.468C120.134 9.992 119.943 9.35267 119.943 8.55C119.943 8.00867 120.032 7.444 120.209 6.856C120.386 6.268 120.643 5.73133 120.979 5.246C121.315 4.75133 121.73 4.34533 122.225 4.028C122.72 3.71067 123.284 3.552 123.919 3.552C124.684 3.552 125.258 3.79 125.641 4.266C126.033 4.73267 126.229 5.36733 126.229 6.17C126.229 6.71133 126.14 7.276 125.963 7.864C125.786 8.452 125.529 8.99333 125.193 9.488C124.857 9.97333 124.442 10.3747 123.947 10.692C123.452 11.0093 122.888 11.168 122.253 11.168ZM132.019 11.168C131.646 11.168 131.38 11.07 131.221 10.874C131.062 10.678 130.983 10.4587 130.983 10.216C130.983 10.1133 130.992 10.0013 131.011 9.88C131.039 9.74933 131.067 9.63267 131.095 9.53L132.257 5.302C132.285 5.19 132.299 5.08733 132.299 4.994C132.299 4.73267 132.178 4.602 131.935 4.602C131.711 4.602 131.454 4.71867 131.165 4.952C130.885 5.18533 130.605 5.50733 130.325 5.918C130.045 6.31933 129.779 6.79067 129.527 7.332C129.284 7.864 129.088 8.42867 128.939 9.026L128.449 11H126.937L129.303 1.564H128.099L128.253 0.933999L131.109 0.359999L129.527 6.17L129.667 6.212C129.854 5.86667 130.045 5.53533 130.241 5.218C130.437 4.90067 130.647 4.62067 130.871 4.378C131.104 4.126 131.356 3.92533 131.627 3.776C131.898 3.62667 132.201 3.552 132.537 3.552C132.985 3.552 133.307 3.67333 133.503 3.916C133.699 4.14933 133.797 4.45733 133.797 4.84C133.797 4.97067 133.783 5.11067 133.755 5.26C133.736 5.40933 133.704 5.56333 133.657 5.722L132.453 10.118L132.705 10.23L134.161 8.634L134.581 8.914L133.671 10.076C133.354 10.496 133.064 10.7853 132.803 10.944C132.551 11.0933 132.29 11.168 132.019 11.168ZM140.155 11.168C139.474 11.168 138.975 10.972 138.657 10.58C138.349 10.188 138.195 9.614 138.195 8.858C138.195 8.50333 138.228 8.12533 138.293 7.724C138.359 7.32267 138.457 6.926 138.587 6.534C138.727 6.142 138.905 5.76867 139.119 5.414C139.334 5.05 139.586 4.73267 139.875 4.462C140.165 4.182 140.491 3.96267 140.855 3.804C141.229 3.636 141.644 3.552 142.101 3.552C142.344 3.552 142.577 3.58 142.801 3.636C143.035 3.68267 143.24 3.762 143.417 3.874C143.604 3.986 143.749 4.13533 143.851 4.322C143.963 4.50867 144.019 4.73733 144.019 5.008C144.019 5.25067 143.959 5.50267 143.837 5.764C143.716 6.016 143.501 6.254 143.193 6.478C142.895 6.702 142.484 6.89333 141.961 7.052C141.439 7.21067 140.781 7.318 139.987 7.374C139.913 7.67267 139.852 7.97133 139.805 8.27C139.768 8.55933 139.749 8.82067 139.749 9.054C139.749 9.84733 140.057 10.244 140.673 10.244C141.093 10.244 141.49 10.0667 141.863 9.712C142.246 9.35733 142.605 8.86267 142.941 8.228L143.417 8.452C143.193 8.9 142.969 9.29667 142.745 9.642C142.521 9.978 142.279 10.2627 142.017 10.496C141.765 10.72 141.485 10.888 141.177 11C140.869 11.112 140.529 11.168 140.155 11.168ZM140.099 6.884C141.033 6.76267 141.695 6.54333 142.087 6.226C142.479 5.89933 142.675 5.48867 142.675 4.994C142.675 4.76067 142.619 4.56933 142.507 4.42C142.405 4.27067 142.223 4.196 141.961 4.196C141.756 4.196 141.569 4.24267 141.401 4.336C141.233 4.42 141.075 4.56933 140.925 4.784C140.776 4.98933 140.631 5.26467 140.491 5.61C140.361 5.95533 140.23 6.38 140.099 6.884ZM145.937 11.168C145.573 11.168 145.312 11.0747 145.153 10.888C144.994 10.692 144.915 10.4727 144.915 10.23C144.915 10.118 144.929 9.99667 144.957 9.866C144.985 9.726 145.008 9.60933 145.027 9.516L146.287 4.448H145.069L145.251 3.72H145.825C146.124 3.72 146.348 3.67333 146.497 3.58C146.646 3.47733 146.786 3.30933 146.917 3.076L147.659 1.774H148.457L147.981 3.72H149.689L149.507 4.448H147.799L146.399 10.076L146.637 10.216L148.485 8.704L148.863 9.054L147.547 10.286C147.351 10.4727 147.178 10.6267 147.029 10.748C146.88 10.86 146.744 10.9487 146.623 11.014C146.502 11.0793 146.385 11.1213 146.273 11.14C146.17 11.1587 146.058 11.168 145.937 11.168ZM151.19 11.168C150.667 11.168 150.289 10.986 150.056 10.622C149.832 10.258 149.72 9.74 149.72 9.068C149.72 8.48933 149.804 7.878 149.972 7.234C150.14 6.58067 150.378 5.98333 150.686 5.442C151.003 4.89133 151.386 4.43867 151.834 4.084C152.291 3.72933 152.805 3.552 153.374 3.552C153.785 3.552 154.121 3.65467 154.382 3.86C154.643 4.06533 154.825 4.392 154.928 4.84H155.068L155.782 3.72H156.538L154.914 10.118L155.166 10.23L156.622 8.634L157.042 8.914L156.132 10.076C155.805 10.4867 155.525 10.7713 155.292 10.93C155.068 11.0887 154.835 11.168 154.592 11.168C154.237 11.168 153.985 11.0747 153.836 10.888C153.696 10.7013 153.626 10.4867 153.626 10.244C153.626 10.1227 153.635 9.992 153.654 9.852C153.682 9.712 153.71 9.59067 153.738 9.488L153.948 8.648L153.808 8.606C153.64 8.97 153.467 9.31067 153.29 9.628C153.113 9.936 152.917 10.2067 152.702 10.44C152.497 10.664 152.268 10.8413 152.016 10.972C151.764 11.1027 151.489 11.168 151.19 11.168ZM151.778 10.104C152.039 10.104 152.31 9.964 152.59 9.684C152.87 9.39467 153.131 9.04933 153.374 8.648C153.626 8.23733 153.845 7.808 154.032 7.36C154.219 6.912 154.354 6.52467 154.438 6.198L154.508 5.918C154.62 5.47 154.62 5.106 154.508 4.826C154.396 4.546 154.153 4.406 153.78 4.406C153.351 4.406 152.945 4.616 152.562 5.036C152.189 5.44667 151.885 6.07667 151.652 6.926C151.605 7.08467 151.559 7.26667 151.512 7.472C151.475 7.668 151.437 7.86867 151.4 8.074C151.372 8.27933 151.344 8.47533 151.316 8.662C151.297 8.84867 151.288 9.012 151.288 9.152C151.288 9.45067 151.321 9.684 151.386 9.852C151.451 10.02 151.582 10.104 151.778 10.104ZM159.12 4.756H157.916L158.07 4.126L160.786 3.552L160.142 6.1L160.282 6.142C160.45 5.722 160.618 5.35333 160.786 5.036C160.954 4.70933 161.132 4.43867 161.318 4.224C161.505 4 161.71 3.832 161.934 3.72C162.158 3.608 162.406 3.552 162.676 3.552C163.059 3.552 163.348 3.65 163.544 3.846C163.75 4.03267 163.852 4.27533 163.852 4.574C163.852 4.854 163.764 5.10133 163.586 5.316C163.409 5.53067 163.166 5.638 162.858 5.638C162.625 5.638 162.434 5.57267 162.284 5.442C162.144 5.31133 162.074 5.13867 162.074 4.924C162.074 4.79333 162.102 4.66733 162.158 4.546C162.224 4.41533 162.294 4.31267 162.368 4.238L162.284 4.14C162.042 4.18667 161.78 4.39667 161.5 4.77C161.22 5.134 160.94 5.60533 160.66 6.184C160.576 6.36133 160.478 6.576 160.366 6.828C160.254 7.08 160.142 7.35533 160.03 7.654C159.928 7.94333 159.825 8.24667 159.722 8.564C159.62 8.88133 159.531 9.18933 159.456 9.488L159.078 11H157.566L159.12 4.756ZM161.325 12.96C161.689 12.68 162.011 12.3813 162.291 12.064C162.58 11.756 162.809 11.4527 162.977 11.154C162.753 11.126 162.571 11.0373 162.431 10.888C162.3 10.7293 162.235 10.5427 162.235 10.328C162.235 10.188 162.258 10.048 162.305 9.908C162.38 9.66533 162.515 9.474 162.711 9.334C162.916 9.194 163.154 9.124 163.425 9.124C163.714 9.124 163.934 9.21267 164.083 9.39C164.242 9.558 164.321 9.76333 164.321 10.006C164.321 10.1367 164.302 10.272 164.265 10.412C164.2 10.6547 164.092 10.8927 163.943 11.126C163.803 11.3687 163.635 11.602 163.439 11.826C163.252 12.05 163.047 12.2553 162.823 12.442C162.608 12.638 162.398 12.8107 162.193 12.96H161.325ZM5.172 34.384C5.55467 34.384 5.90467 34.3047 6.222 34.146C6.54867 33.9873 6.838 33.7727 7.09 33.502C7.342 33.2313 7.55667 32.9093 7.734 32.536C7.92067 32.1627 8.06533 31.7567 8.168 31.318C8.308 30.7767 8.42 30.324 8.504 29.96C8.59733 29.596 8.66733 29.2833 8.714 29.022C8.77 28.7607 8.80733 28.5367 8.826 28.35C8.854 28.1633 8.868 27.9767 8.868 27.79C8.868 27.51 8.83067 27.2533 8.756 27.02C8.69067 26.7867 8.57867 26.5813 8.42 26.404C8.27067 26.2267 8.07933 26.0913 7.846 25.998C7.61267 25.8953 7.33733 25.844 7.02 25.844C6.63733 25.844 6.28267 25.9233 5.956 26.082C5.63867 26.2407 5.354 26.4553 5.102 26.726C4.85 26.9967 4.63067 27.3233 4.444 27.706C4.26667 28.0793 4.12667 28.4807 4.024 28.91C3.89333 29.4513 3.78133 29.9087 3.688 30.282C3.604 30.646 3.534 30.9587 3.478 31.22C3.422 31.472 3.38 31.6913 3.352 31.878C3.33333 32.0647 3.324 32.2513 3.324 32.438C3.324 32.718 3.35667 32.9747 3.422 33.208C3.49667 33.4413 3.60867 33.6467 3.758 33.824C3.91667 34.0013 4.108 34.1413 4.332 34.244C4.56533 34.3373 4.84533 34.384 5.172 34.384ZM5.004 35.168C3.968 35.168 3.16533 34.8553 2.596 34.23C2.036 33.6047 1.756 32.746 1.756 31.654C1.756 31.2527 1.80267 30.8093 1.896 30.324C1.98933 29.8387 2.12933 29.3533 2.316 28.868C2.512 28.3733 2.75467 27.8973 3.044 27.44C3.34267 26.9827 3.69267 26.5813 4.094 26.236C4.49533 25.8813 4.95267 25.5967 5.466 25.382C5.97933 25.1673 6.55333 25.06 7.188 25.06C8.224 25.06 9.022 25.3727 9.582 25.998C10.1513 26.6233 10.436 27.482 10.436 28.574C10.436 28.9753 10.3893 29.4187 10.296 29.904C10.2027 30.3893 10.058 30.8793 9.862 31.374C9.67533 31.8593 9.43267 32.3307 9.134 32.788C8.84467 33.2453 8.49933 33.6513 8.098 34.006C7.69667 34.3513 7.23933 34.6313 6.726 34.846C6.21267 35.0607 5.63867 35.168 5.004 35.168ZM12.8211 28.28C12.5225 28.28 12.2938 28.196 12.1351 28.028C11.9858 27.8507 11.9111 27.6407 11.9111 27.398C11.9111 27.258 11.9298 27.118 11.9671 26.978C12.0231 26.754 12.1211 26.53 12.2611 26.306C12.4011 26.0727 12.5598 25.8487 12.7371 25.634C12.9238 25.41 13.1198 25.2047 13.3251 25.018C13.5398 24.8313 13.7498 24.668 13.9551 24.528H14.8231C14.4591 24.808 14.1465 25.0973 13.8851 25.396C13.6238 25.6947 13.4091 25.9933 13.2411 26.292C13.4745 26.3013 13.6565 26.39 13.7871 26.558C13.9271 26.7167 13.9971 26.8893 13.9971 27.076C13.9971 27.216 13.9738 27.356 13.9271 27.496C13.8525 27.7387 13.7171 27.93 13.5211 28.07C13.3251 28.21 13.0918 28.28 12.8211 28.28ZM18.3016 35.168C18.0869 35.168 17.8676 35.1493 17.6436 35.112C17.4196 35.084 17.1629 35.0373 16.8736 34.972C16.5936 34.8973 16.2669 34.8087 15.8936 34.706C15.5296 34.594 15.1003 34.4587 14.6056 34.3L14.4376 35H13.6816L13.8076 34.51C13.8543 34.2953 13.9149 34.132 13.9896 34.02C14.0736 33.908 14.1996 33.768 14.3676 33.6L18.6236 29.372L15.9076 28.896L15.6696 29.036L15.1936 30.45L14.7036 30.366L15.1516 28.49C15.2356 28.126 15.3663 27.8787 15.5436 27.748C15.7209 27.6173 15.9869 27.552 16.3416 27.552C16.5376 27.552 16.7336 27.5707 16.9296 27.608C17.1256 27.636 17.3449 27.6873 17.5876 27.762C17.8396 27.8273 18.1243 27.916 18.4416 28.028C18.7683 28.1307 19.1556 28.2567 19.6036 28.406L19.7856 27.72H20.5276L20.4016 28.21C20.3456 28.4247 20.2803 28.588 20.2056 28.7C20.1403 28.812 20.0236 28.952 19.8556 29.12L15.5716 33.334L18.7356 33.824L18.9736 33.684L19.4636 32.27L19.9536 32.354L19.5056 34.216C19.4123 34.58 19.2769 34.832 19.0996 34.972C18.9223 35.1027 18.6563 35.168 18.3016 35.168ZM22.2048 35.168C21.8314 35.168 21.5608 35.07 21.3927 34.874C21.2341 34.678 21.1548 34.4587 21.1548 34.216C21.1548 34.1133 21.1688 33.9967 21.1968 33.866C21.2248 33.7353 21.2481 33.6187 21.2668 33.516L22.4568 28.756H21.2528L21.4068 28.126L24.2628 27.552L22.6248 34.118L22.8768 34.23L24.3328 32.634L24.7528 32.914L23.8428 34.076C23.5161 34.5147 23.2221 34.8087 22.9608 34.958C22.6994 35.098 22.4474 35.168 22.2048 35.168ZM23.8708 26.25C23.6001 26.25 23.3948 26.18 23.2548 26.04C23.1148 25.8907 23.0448 25.7227 23.0448 25.536C23.0448 25.4333 23.0588 25.3307 23.0868 25.228C23.1428 24.9947 23.2594 24.808 23.4368 24.668C23.6234 24.528 23.8474 24.458 24.1088 24.458C24.3794 24.458 24.5848 24.5327 24.7248 24.682C24.8648 24.822 24.9348 24.9853 24.9348 25.172C24.9348 25.2187 24.9301 25.27 24.9208 25.326C24.9208 25.382 24.9114 25.4333 24.8928 25.48C24.8368 25.7133 24.7154 25.9 24.5288 26.04C24.3514 26.18 24.1321 26.25 23.8708 26.25ZM30.3731 35.168C29.9998 35.168 29.7338 35.07 29.5751 34.874C29.4164 34.678 29.3371 34.4587 29.3371 34.216C29.3371 34.1133 29.3464 34.0013 29.3651 33.88C29.3931 33.7493 29.4211 33.6327 29.4491 33.53L30.6111 29.302C30.6391 29.19 30.6531 29.0873 30.6531 28.994C30.6531 28.7327 30.5318 28.602 30.2891 28.602C30.0651 28.602 29.8084 28.7233 29.5191 28.966C29.2391 29.1993 28.9591 29.5167 28.6791 29.918C28.3991 30.3193 28.1331 30.7907 27.8811 31.332C27.6384 31.864 27.4424 32.4287 27.2931 33.026L26.8031 35H25.2911L26.8451 28.756H25.6411L25.7951 28.126L28.5391 27.552L27.8811 30.17L28.0211 30.212C28.2078 29.8667 28.3991 29.5353 28.5951 29.218C28.7911 28.9007 29.0011 28.6207 29.2251 28.378C29.4584 28.126 29.7104 27.9253 29.9811 27.776C30.2518 27.6267 30.5551 27.552 30.8911 27.552C31.3391 27.552 31.6611 27.6733 31.8571 27.916C32.0531 28.1493 32.1511 28.4573 32.1511 28.84C32.1511 28.9707 32.1371 29.1107 32.1091 29.26C32.0904 29.4093 32.0578 29.5633 32.0111 29.722L30.8071 34.118L31.0591 34.23L32.5151 32.634L32.9351 32.914L32.0251 34.076C31.7078 34.496 31.4184 34.7853 31.1571 34.944C30.9051 35.0933 30.6438 35.168 30.3731 35.168ZM34.8102 35.168C34.4369 35.168 34.1662 35.07 33.9982 34.874C33.8396 34.678 33.7602 34.4587 33.7602 34.216C33.7602 34.1133 33.7742 33.9967 33.8022 33.866C33.8302 33.7353 33.8536 33.6187 33.8722 33.516L35.0622 28.756H33.8582L34.0122 28.126L36.8682 27.552L35.2302 34.118L35.4822 34.23L36.9382 32.634L37.3582 32.914L36.4482 34.076C36.1216 34.5147 35.8276 34.8087 35.5662 34.958C35.3049 35.098 35.0529 35.168 34.8102 35.168ZM36.4762 26.25C36.2056 26.25 36.0002 26.18 35.8602 26.04C35.7202 25.8907 35.6502 25.7227 35.6502 25.536C35.6502 25.4333 35.6642 25.3307 35.6922 25.228C35.7482 24.9947 35.8649 24.808 36.0422 24.668C36.2289 24.528 36.4529 24.458 36.7142 24.458C36.9849 24.458 37.1902 24.5327 37.3302 24.682C37.4702 24.822 37.5402 24.9853 37.5402 25.172C37.5402 25.2187 37.5356 25.27 37.5262 25.326C37.5262 25.382 37.5169 25.4333 37.4982 25.48C37.4422 25.7133 37.3209 25.9 37.1342 26.04C36.9569 26.18 36.7376 26.25 36.4762 26.25ZM37.4346 37.968C37.0519 37.968 36.7486 37.8793 36.5246 37.702C36.2912 37.5247 36.1746 37.2913 36.1746 37.002C36.1746 36.7407 36.2586 36.512 36.4266 36.316C36.5946 36.12 36.8232 36.022 37.1126 36.022C37.3459 36.022 37.5279 36.0873 37.6586 36.218C37.7892 36.3487 37.8546 36.5167 37.8546 36.722C37.8546 36.8527 37.8266 36.9787 37.7706 37.1C37.7146 37.2307 37.6446 37.3287 37.5606 37.394L37.6586 37.478C37.9666 37.3473 38.2606 37.1233 38.5406 36.806C38.8299 36.498 39.1332 36.036 39.4506 35.42L38.7506 28.392H38.1626L38.3306 27.72H41.2566L41.1026 28.392H40.2906L40.6126 33.39H40.7386L43.5106 28.392H42.7266L42.8946 27.72H45.1206L44.9386 28.392H44.3926L39.9266 35.938C39.4786 36.694 39.0446 37.2213 38.6246 37.52C38.2046 37.8187 37.8079 37.968 37.4346 37.968ZM46.2728 35.168C45.8342 35.168 45.5122 35.0513 45.3068 34.818C45.1108 34.5753 45.0128 34.2627 45.0128 33.88C45.0128 33.74 45.0222 33.5953 45.0408 33.446C45.0688 33.2967 45.1062 33.1427 45.1528 32.984L46.3148 28.756H45.0968L45.2508 28.126L48.1768 27.552L46.5528 33.418C46.5248 33.53 46.5108 33.6327 46.5108 33.726C46.5108 33.9873 46.6322 34.118 46.8748 34.118C47.0988 34.118 47.3508 34.0013 47.6308 33.768C47.9202 33.5253 48.2048 33.2033 48.4848 32.802C48.7648 32.4007 49.0262 31.934 49.2688 31.402C49.5208 30.8607 49.7215 30.2913 49.8708 29.694L50.3608 27.72H51.8728L50.2628 34.118L50.5148 34.23L51.9708 32.634L52.3908 32.914L51.4808 34.076C51.1448 34.524 50.8508 34.818 50.5988 34.958C50.3468 35.098 50.1088 35.168 49.8848 35.168C49.5302 35.168 49.2782 35.0747 49.1288 34.888C48.9888 34.692 48.9188 34.4773 48.9188 34.244C48.9188 34.1227 48.9328 33.992 48.9608 33.852C48.9888 33.712 49.0168 33.5907 49.0448 33.488L49.2828 32.55L49.1428 32.508C48.9562 32.8533 48.7648 33.1893 48.5688 33.516C48.3728 33.8333 48.1582 34.1133 47.9248 34.356C47.7008 34.5987 47.4535 34.7947 47.1828 34.944C46.9122 35.0933 46.6088 35.168 46.2728 35.168ZM56.5328 35.168C56.1408 35.168 55.8421 35.0793 55.6368 34.902C55.4314 34.7247 55.3287 34.496 55.3287 34.216C55.3287 33.9173 55.4174 33.6607 55.5948 33.446C55.7814 33.2313 56.0241 33.124 56.3228 33.124C56.5561 33.124 56.7428 33.1893 56.8828 33.32C57.0228 33.4507 57.0928 33.6233 57.0928 33.838C57.0928 33.9687 57.0648 34.0993 57.0088 34.23C56.9528 34.3607 56.8874 34.4633 56.8128 34.538L56.8968 34.608C57.0461 34.58 57.2048 34.482 57.3728 34.314C57.5408 34.146 57.7088 33.9267 57.8768 33.656C58.0541 33.3853 58.2268 33.068 58.3948 32.704C58.5721 32.34 58.7401 31.9433 58.8988 31.514L58.1848 28.616L57.9608 28.574L56.7708 29.834L56.3927 29.526L57.1068 28.644C57.4614 28.2053 57.7601 27.916 58.0028 27.776C58.2548 27.6267 58.4974 27.552 58.7308 27.552C59.0294 27.552 59.2488 27.6313 59.3888 27.79C59.5288 27.9487 59.6221 28.168 59.6688 28.448L60.0188 30.436H60.1168C60.2381 30.0813 60.3641 29.75 60.4948 29.442C60.6254 29.134 60.7701 28.8587 60.9288 28.616C61.1808 28.2333 61.4608 27.9627 61.7688 27.804C62.0768 27.636 62.3754 27.552 62.6647 27.552C63.0568 27.552 63.3554 27.6407 63.5608 27.818C63.7661 27.9953 63.8688 28.224 63.8688 28.504C63.8688 28.8027 63.7754 29.0593 63.5888 29.274C63.4114 29.4887 63.1734 29.596 62.8748 29.596C62.6414 29.596 62.4548 29.5307 62.3148 29.4C62.1748 29.2693 62.1048 29.0967 62.1048 28.882C62.1048 28.7513 62.1328 28.6207 62.1888 28.49C62.2448 28.3593 62.3101 28.2567 62.3848 28.182L62.3008 28.112C62.1421 28.14 61.9788 28.238 61.8108 28.406C61.6521 28.574 61.4841 28.7933 61.3068 29.064C61.1388 29.3347 60.9661 29.652 60.7888 30.016C60.6208 30.38 60.4574 30.7767 60.2988 31.206L61.0128 34.104L61.2368 34.146L62.4268 32.886L62.8048 33.194L62.0908 34.076C61.7361 34.5147 61.4328 34.8087 61.1808 34.958C60.9381 35.098 60.7001 35.168 60.4668 35.168C60.1681 35.168 59.9488 35.0887 59.8088 34.93C59.6688 34.7713 59.5754 34.552 59.5288 34.272L59.1788 32.284H59.0808C58.9594 32.6387 58.8334 32.97 58.7028 33.278C58.5721 33.586 58.4274 33.8613 58.2688 34.104C58.0168 34.4867 57.7368 34.762 57.4288 34.93C57.1208 35.0887 56.8221 35.168 56.5328 35.168ZM65.4538 35.168C64.9311 35.168 64.5531 34.986 64.3198 34.622C64.0958 34.258 63.9838 33.74 63.9838 33.068C63.9838 32.4893 64.0678 31.878 64.2358 31.234C64.4038 30.5807 64.6418 29.9833 64.9498 29.442C65.2671 28.8913 65.6498 28.4387 66.0978 28.084C66.5551 27.7293 67.0685 27.552 67.6378 27.552C68.0485 27.552 68.3845 27.6547 68.6458 27.86C68.9071 28.0653 69.0891 28.392 69.1918 28.84H69.3318L70.0458 27.72H70.8018L69.1778 34.118L69.4298 34.23L70.8858 32.634L71.3058 32.914L70.3958 34.076C70.0691 34.4867 69.7891 34.7713 69.5558 34.93C69.3318 35.0887 69.0985 35.168 68.8558 35.168C68.5011 35.168 68.2491 35.0747 68.0998 34.888C67.9598 34.7013 67.8898 34.4867 67.8898 34.244C67.8898 34.1227 67.8991 33.992 67.9178 33.852C67.9458 33.712 67.9738 33.5907 68.0018 33.488L68.2118 32.648L68.0718 32.606C67.9038 32.97 67.7311 33.3107 67.5538 33.628C67.3765 33.936 67.1805 34.2067 66.9658 34.44C66.7605 34.664 66.5318 34.8413 66.2798 34.972C66.0278 35.1027 65.7525 35.168 65.4538 35.168ZM66.0418 34.104C66.3031 34.104 66.5738 33.964 66.8538 33.684C67.1338 33.3947 67.3951 33.0493 67.6378 32.648C67.8898 32.2373 68.1091 31.808 68.2958 31.36C68.4825 30.912 68.6178 30.5247 68.7018 30.198L68.7718 29.918C68.8838 29.47 68.8838 29.106 68.7718 28.826C68.6598 28.546 68.4171 28.406 68.0438 28.406C67.6145 28.406 67.2085 28.616 66.8258 29.036C66.4525 29.4467 66.1491 30.0767 65.9158 30.926C65.8691 31.0847 65.8225 31.2667 65.7758 31.472C65.7385 31.668 65.7011 31.8687 65.6638 32.074C65.6358 32.2793 65.6078 32.4753 65.5798 32.662C65.5611 32.8487 65.5518 33.012 65.5518 33.152C65.5518 33.4507 65.5845 33.684 65.6498 33.852C65.7151 34.02 65.8458 34.104 66.0418 34.104ZM72.9362 35.168C72.5628 35.168 72.2922 35.07 72.1242 34.874C71.9655 34.678 71.8862 34.4587 71.8862 34.216C71.8862 34.1133 71.8955 33.9967 71.9142 33.866C71.9422 33.7353 71.9702 33.6187 71.9982 33.516L73.9862 25.564H72.7822L72.9362 24.934L75.7922 24.36L73.3562 34.118L73.6082 34.23L75.0642 32.634L75.4842 32.914L74.5742 34.076C74.2475 34.5147 73.9535 34.8087 73.6922 34.958C73.4308 35.098 73.1788 35.168 72.9362 35.168ZM77.7778 37.128H79.0378L80.2978 32.648L80.1578 32.606C79.9898 32.97 79.8171 33.3107 79.6398 33.628C79.4624 33.936 79.2664 34.2067 79.0518 34.44C78.8464 34.664 78.6178 34.8413 78.3658 34.972C78.1231 35.1027 77.8478 35.168 77.5398 35.168C77.0171 35.168 76.6391 34.986 76.4058 34.622C76.1818 34.258 76.0698 33.74 76.0698 33.068C76.0698 32.4893 76.1538 31.878 76.3218 31.234C76.4898 30.5807 76.7278 29.9833 77.0358 29.442C77.3531 28.8913 77.7358 28.4387 78.1838 28.084C78.6411 27.7293 79.1544 27.552 79.7238 27.552C80.1344 27.552 80.4704 27.6547 80.7318 27.86C80.9931 28.0653 81.1751 28.392 81.2778 28.84H81.4178L82.1318 27.72H82.8878L80.5498 37.128H81.4878L81.3338 37.8H77.6098L77.7778 37.128ZM78.1278 34.104C78.3984 34.104 78.6738 33.9593 78.9538 33.67C79.2431 33.3713 79.5091 33.0167 79.7518 32.606C79.9944 32.186 80.2091 31.7567 80.3958 31.318C80.5824 30.8793 80.7131 30.5107 80.7878 30.212L80.8578 29.932C80.9791 29.484 80.9791 29.12 80.8578 28.84C80.7458 28.5507 80.5031 28.406 80.1298 28.406C79.7004 28.406 79.2944 28.616 78.9118 29.036C78.5384 29.4467 78.2351 30.0767 78.0018 30.926C77.9551 31.0847 77.9084 31.2667 77.8618 31.472C77.8244 31.668 77.7871 31.8687 77.7498 32.074C77.7218 32.2793 77.6938 32.4753 77.6658 32.662C77.6471 32.8487 77.6378 33.012 77.6378 33.152C77.6378 33.4507 77.6704 33.684 77.7358 33.852C77.8011 34.02 77.9318 34.104 78.1278 34.104ZM88.6426 35.168C88.2693 35.168 88.0033 35.07 87.8446 34.874C87.686 34.678 87.6066 34.4587 87.6066 34.216C87.6066 34.1133 87.616 34.0013 87.6346 33.88C87.6626 33.7493 87.6906 33.6327 87.7186 33.53L88.8806 29.302C88.9086 29.19 88.9226 29.0873 88.9226 28.994C88.9226 28.7327 88.8013 28.602 88.5586 28.602C88.3346 28.602 88.078 28.7233 87.7886 28.966C87.5086 29.1993 87.2286 29.5167 86.9486 29.918C86.6686 30.3193 86.4026 30.7907 86.1506 31.332C85.908 31.864 85.712 32.4287 85.5626 33.026L85.0726 35H83.5606L85.1146 28.756H83.9106L84.0646 28.126L86.8086 27.552L86.1506 30.17L86.2906 30.212C86.4773 29.8667 86.6686 29.5353 86.8646 29.218C87.0606 28.9007 87.2706 28.6207 87.4946 28.378C87.728 28.126 87.98 27.9253 88.2506 27.776C88.5213 27.6267 88.8246 27.552 89.1606 27.552C89.6086 27.552 89.9306 27.6733 90.1266 27.916C90.3226 28.1493 90.4206 28.4573 90.4206 28.84C90.4206 28.9707 90.4066 29.1107 90.3786 29.26C90.36 29.4093 90.3273 29.5633 90.2806 29.722L89.0766 34.118L89.3286 34.23L90.7846 32.634L91.2046 32.914L90.2946 34.076C89.9773 34.496 89.688 34.7853 89.4266 34.944C89.1746 35.0933 88.9133 35.168 88.6426 35.168ZM93.0798 35.168C92.7064 35.168 92.4358 35.07 92.2677 34.874C92.1091 34.678 92.0298 34.4587 92.0298 34.216C92.0298 34.1133 92.0438 33.9967 92.0718 33.866C92.0998 33.7353 92.1231 33.6187 92.1418 33.516L93.3318 28.756H92.1278L92.2818 28.126L95.1378 27.552L93.4998 34.118L93.7518 34.23L95.2078 32.634L95.6278 32.914L94.7178 34.076C94.3911 34.5147 94.0971 34.8087 93.8358 34.958C93.5744 35.098 93.3224 35.168 93.0798 35.168ZM94.7458 26.25C94.4751 26.25 94.2698 26.18 94.1298 26.04C93.9898 25.8907 93.9198 25.7227 93.9198 25.536C93.9198 25.4333 93.9338 25.3307 93.9618 25.228C94.0178 24.9947 94.1344 24.808 94.3118 24.668C94.4984 24.528 94.7224 24.458 94.9838 24.458C95.2544 24.458 95.4598 24.5327 95.5998 24.682C95.7398 24.822 95.8098 24.9853 95.8098 25.172C95.8098 25.2187 95.8051 25.27 95.7958 25.326C95.7958 25.382 95.7864 25.4333 95.7678 25.48C95.7118 25.7133 95.5904 25.9 95.4038 26.04C95.2264 26.18 95.0071 26.25 94.7458 26.25ZM100.631 37.968C100.099 37.968 99.6462 37.9307 99.2729 37.856C98.9089 37.7813 98.6102 37.674 98.3769 37.534C98.1342 37.4033 97.9616 37.2493 97.8589 37.072C97.7469 36.8947 97.6909 36.7033 97.6909 36.498C97.6909 36.2647 97.7562 36.0547 97.8869 35.868C98.0082 35.6907 98.1762 35.532 98.3909 35.392C98.5962 35.252 98.8296 35.1307 99.0909 35.028C99.3522 34.9347 99.6182 34.8507 99.8889 34.776L99.9169 34.664C99.6556 34.5333 99.4549 34.3887 99.3149 34.23C99.1842 34.062 99.1189 33.8567 99.1189 33.614C99.1189 33.4087 99.1609 33.2267 99.2449 33.068C99.3289 32.9093 99.4409 32.774 99.5809 32.662C99.7209 32.5407 99.8796 32.4427 100.057 32.368C100.234 32.2933 100.416 32.2327 100.603 32.186L100.617 32.074C100.356 31.9153 100.15 31.7053 100.001 31.444C99.8516 31.1733 99.7769 30.8513 99.7769 30.478C99.7769 30.0487 99.8609 29.6567 100.029 29.302C100.197 28.938 100.426 28.6253 100.715 28.364C101.014 28.1027 101.359 27.902 101.751 27.762C102.143 27.622 102.563 27.552 103.011 27.552C103.226 27.552 103.422 27.5753 103.599 27.622C103.786 27.6687 103.958 27.7293 104.117 27.804C104.229 27.3653 104.388 27.0247 104.593 26.782C104.798 26.53 105.064 26.404 105.391 26.404C105.624 26.404 105.806 26.4647 105.937 26.586C106.068 26.698 106.133 26.852 106.133 27.048C106.133 27.2627 106.058 27.4447 105.909 27.594C105.769 27.7433 105.596 27.818 105.391 27.818C105.064 27.818 104.859 27.6593 104.775 27.342H104.705L104.467 28.042C104.654 28.21 104.794 28.4107 104.887 28.644C104.99 28.868 105.041 29.1293 105.041 29.428C105.041 29.8573 104.952 30.254 104.775 30.618C104.607 30.9727 104.374 31.2807 104.075 31.542C103.786 31.794 103.445 31.99 103.053 32.13C102.67 32.27 102.26 32.34 101.821 32.34C101.588 32.34 101.392 32.3213 101.233 32.284C101.009 32.3213 100.799 32.3913 100.603 32.494C100.416 32.5967 100.323 32.7507 100.323 32.956C100.323 33.1053 100.388 33.2173 100.519 33.292C100.659 33.3667 100.846 33.4413 101.079 33.516L102.381 33.978C103.034 34.202 103.524 34.4447 103.851 34.706C104.178 34.9673 104.341 35.3313 104.341 35.798C104.341 36.19 104.238 36.5213 104.033 36.792C103.828 37.0627 103.552 37.2867 103.207 37.464C102.862 37.6413 102.465 37.7673 102.017 37.842C101.578 37.926 101.116 37.968 100.631 37.968ZM101.975 31.766C102.358 31.766 102.656 31.6307 102.871 31.36C103.095 31.0893 103.263 30.73 103.375 30.282C103.468 29.8993 103.534 29.6147 103.571 29.428C103.608 29.232 103.627 29.0827 103.627 28.98C103.627 28.7093 103.566 28.4993 103.445 28.35C103.324 28.2007 103.123 28.126 102.843 28.126C102.46 28.126 102.157 28.2613 101.933 28.532C101.718 28.8027 101.555 29.162 101.443 29.61C101.35 29.9927 101.284 30.282 101.247 30.478C101.21 30.6647 101.191 30.8093 101.191 30.912C101.191 31.1827 101.252 31.3927 101.373 31.542C101.494 31.6913 101.695 31.766 101.975 31.766ZM100.827 37.478C101.088 37.478 101.345 37.4547 101.597 37.408C101.849 37.3707 102.073 37.3007 102.269 37.198C102.465 37.1047 102.624 36.9787 102.745 36.82C102.866 36.6707 102.927 36.484 102.927 36.26C102.927 35.9987 102.843 35.8073 102.675 35.686C102.507 35.574 102.269 35.4667 101.961 35.364L100.491 34.874C100.276 34.9487 100.071 35.0327 99.8749 35.126C99.6882 35.2193 99.5202 35.3267 99.3709 35.448C99.2216 35.5693 99.1049 35.7047 99.0209 35.854C98.9369 36.0033 98.8949 36.1667 98.8949 36.344C98.8949 36.68 99.0442 36.9507 99.3429 37.156C99.6509 37.3707 100.146 37.478 100.827 37.478ZM107.413 35.168C106.975 35.168 106.653 35.0513 106.447 34.818C106.251 34.5753 106.153 34.2627 106.153 33.88C106.153 33.74 106.163 33.5953 106.181 33.446C106.209 33.2967 106.247 33.1427 106.293 32.984L107.455 28.756H106.237L106.391 28.126L109.317 27.552L107.693 33.418C107.665 33.53 107.651 33.6327 107.651 33.726C107.651 33.9873 107.773 34.118 108.015 34.118C108.239 34.118 108.491 34.0013 108.771 33.768C109.061 33.5253 109.345 33.2033 109.625 32.802C109.905 32.4007 110.167 31.934 110.409 31.402C110.661 30.8607 110.862 30.2913 111.011 29.694L111.501 27.72H113.013L111.403 34.118L111.655 34.23L113.111 32.634L113.531 32.914L112.621 34.076C112.285 34.524 111.991 34.818 111.739 34.958C111.487 35.098 111.249 35.168 111.025 35.168C110.671 35.168 110.419 35.0747 110.269 34.888C110.129 34.692 110.059 34.4773 110.059 34.244C110.059 34.1227 110.073 33.992 110.101 33.852C110.129 33.712 110.157 33.5907 110.185 33.488L110.423 32.55L110.283 32.508C110.097 32.8533 109.905 33.1893 109.709 33.516C109.513 33.8333 109.299 34.1133 109.065 34.356C108.841 34.5987 108.594 34.7947 108.323 34.944C108.053 35.0933 107.749 35.168 107.413 35.168ZM123.023 35.168C122.836 35.168 122.677 35.14 122.547 35.084C122.416 35.028 122.309 34.958 122.225 34.874C122.141 34.7807 122.08 34.678 122.043 34.566C122.005 34.454 121.987 34.3373 121.987 34.216C121.987 34.1133 121.996 34.0013 122.015 33.88C122.043 33.7493 122.071 33.6327 122.099 33.53L123.261 29.302C123.289 29.19 123.303 29.0873 123.303 28.994C123.303 28.7327 123.181 28.602 122.939 28.602C122.705 28.602 122.444 28.7233 122.155 28.966C121.875 29.1993 121.595 29.5167 121.315 29.918C121.035 30.3193 120.773 30.7907 120.531 31.332C120.288 31.864 120.092 32.4287 119.943 33.026L119.453 35H117.941L119.341 29.33C119.378 29.19 119.397 29.078 119.397 28.994C119.397 28.7327 119.28 28.602 119.047 28.602C118.823 28.602 118.571 28.7233 118.291 28.966C118.011 29.1993 117.731 29.5167 117.451 29.918C117.171 30.3193 116.905 30.7907 116.653 31.332C116.41 31.864 116.214 32.4287 116.065 33.026L115.575 35H114.063L115.617 28.756H114.413L114.567 28.126L117.311 27.552L116.653 30.17L116.793 30.212C116.979 29.8667 117.171 29.5353 117.367 29.218C117.563 28.9007 117.773 28.6207 117.997 28.378C118.23 28.126 118.477 27.9253 118.739 27.776C119.009 27.6267 119.308 27.552 119.635 27.552C120.027 27.552 120.311 27.6687 120.489 27.902C120.675 28.126 120.769 28.434 120.769 28.826C120.769 29.0407 120.741 29.2647 120.685 29.498L120.531 30.156L120.671 30.198C120.857 29.8527 121.049 29.5213 121.245 29.204C121.441 28.8867 121.651 28.6067 121.875 28.364C122.108 28.1213 122.355 27.9253 122.617 27.776C122.887 27.6267 123.191 27.552 123.527 27.552C123.975 27.552 124.297 27.6733 124.493 27.916C124.698 28.1493 124.801 28.4573 124.801 28.84C124.801 28.98 124.787 29.1247 124.759 29.274C124.74 29.414 124.707 29.5633 124.661 29.722L123.457 34.118L123.709 34.23L125.165 32.634L125.585 32.914L124.675 34.076C124.348 34.496 124.059 34.7853 123.807 34.944C123.555 35.0933 123.293 35.168 123.023 35.168ZM127.703 28.756H126.499L126.653 28.126L129.369 27.552L128.725 30.1L128.865 30.142C129.033 29.722 129.201 29.3533 129.369 29.036C129.537 28.7093 129.714 28.4387 129.901 28.224C130.087 28 130.293 27.832 130.517 27.72C130.741 27.608 130.988 27.552 131.259 27.552C131.641 27.552 131.931 27.65 132.127 27.846C132.332 28.0327 132.435 28.2753 132.435 28.574C132.435 28.854 132.346 29.1013 132.169 29.316C131.991 29.5307 131.749 29.638 131.441 29.638C131.207 29.638 131.016 29.5727 130.867 29.442C130.727 29.3113 130.657 29.1387 130.657 28.924C130.657 28.7933 130.685 28.6673 130.741 28.546C130.806 28.4153 130.876 28.3127 130.951 28.238L130.867 28.14C130.624 28.1867 130.363 28.3967 130.083 28.77C129.803 29.134 129.523 29.6053 129.243 30.184C129.159 30.3613 129.061 30.576 128.949 30.828C128.837 31.08 128.725 31.3553 128.613 31.654C128.51 31.9433 128.407 32.2467 128.305 32.564C128.202 32.8813 128.113 33.1893 128.039 33.488L127.661 35H126.149L127.703 28.756ZM134.806 34.51C135.048 34.51 135.263 34.4587 135.45 34.356C135.646 34.244 135.818 34.0947 135.968 33.908C136.126 33.712 136.257 33.488 136.36 33.236C136.472 32.9747 136.565 32.6947 136.64 32.396C136.77 31.8827 136.878 31.458 136.962 31.122C137.046 30.7767 137.111 30.4967 137.158 30.282C137.204 30.058 137.237 29.8807 137.256 29.75C137.274 29.6193 137.284 29.5027 137.284 29.4C137.284 29.0547 137.214 28.77 137.074 28.546C136.934 28.322 136.686 28.21 136.332 28.21C136.089 28.21 135.87 28.266 135.674 28.378C135.487 28.4807 135.314 28.63 135.156 28.826C135.006 29.0127 134.876 29.2367 134.764 29.498C134.661 29.75 134.572 30.0253 134.498 30.324C134.367 30.8373 134.26 31.2667 134.176 31.612C134.092 31.948 134.026 32.228 133.98 32.452C133.933 32.6667 133.9 32.844 133.882 32.984C133.863 33.1147 133.854 33.2267 133.854 33.32C133.854 33.6653 133.924 33.95 134.064 34.174C134.204 34.398 134.451 34.51 134.806 34.51ZM134.736 35.168C133.97 35.168 133.392 34.9347 133 34.468C132.617 33.992 132.426 33.3527 132.426 32.55C132.426 32.0087 132.514 31.444 132.692 30.856C132.869 30.268 133.126 29.7313 133.462 29.246C133.798 28.7513 134.213 28.3453 134.708 28.028C135.202 27.7107 135.767 27.552 136.402 27.552C137.167 27.552 137.741 27.79 138.124 28.266C138.516 28.7327 138.712 29.3673 138.712 30.17C138.712 30.7113 138.623 31.276 138.446 31.864C138.268 32.452 138.012 32.9933 137.676 33.488C137.34 33.9733 136.924 34.3747 136.43 34.692C135.935 35.0093 135.37 35.168 134.736 35.168ZM144.501 35.168C144.128 35.168 143.862 35.07 143.703 34.874C143.545 34.678 143.465 34.4587 143.465 34.216C143.465 34.1133 143.475 34.0013 143.493 33.88C143.521 33.7493 143.549 33.6327 143.577 33.53L144.739 29.302C144.767 29.19 144.781 29.0873 144.781 28.994C144.781 28.7327 144.66 28.602 144.417 28.602C144.193 28.602 143.937 28.7187 143.647 28.952C143.367 29.1853 143.087 29.5073 142.807 29.918C142.527 30.3193 142.261 30.7907 142.009 31.332C141.767 31.864 141.571 32.4287 141.421 33.026L140.931 35H139.419L141.785 25.564H140.581L140.735 24.934L143.591 24.36L142.009 30.17L142.149 30.212C142.336 29.8667 142.527 29.5353 142.723 29.218C142.919 28.9007 143.129 28.6207 143.353 28.378C143.587 28.126 143.839 27.9253 144.109 27.776C144.38 27.6267 144.683 27.552 145.019 27.552C145.467 27.552 145.789 27.6733 145.985 27.916C146.181 28.1493 146.279 28.4573 146.279 28.84C146.279 28.9707 146.265 29.1107 146.237 29.26C146.219 29.4093 146.186 29.5633 146.139 29.722L144.935 34.118L145.187 34.23L146.643 32.634L147.063 32.914L146.153 34.076C145.836 34.496 145.547 34.7853 145.285 34.944C145.033 35.0933 144.772 35.168 144.501 35.168ZM152.638 35.168C151.956 35.168 151.457 34.972 151.14 34.58C150.832 34.188 150.678 33.614 150.678 32.858C150.678 32.5033 150.71 32.1253 150.776 31.724C150.841 31.3227 150.939 30.926 151.07 30.534C151.21 30.142 151.387 29.7687 151.602 29.414C151.816 29.05 152.068 28.7327 152.358 28.462C152.647 28.182 152.974 27.9627 153.338 27.804C153.711 27.636 154.126 27.552 154.584 27.552C154.826 27.552 155.06 27.58 155.284 27.636C155.517 27.6827 155.722 27.762 155.9 27.874C156.086 27.986 156.231 28.1353 156.334 28.322C156.446 28.5087 156.502 28.7373 156.502 29.008C156.502 29.2507 156.441 29.5027 156.32 29.764C156.198 30.016 155.984 30.254 155.676 30.478C155.377 30.702 154.966 30.8933 154.444 31.052C153.921 31.2107 153.263 31.318 152.47 31.374C152.395 31.6727 152.334 31.9713 152.288 32.27C152.25 32.5593 152.232 32.8207 152.232 33.054C152.232 33.8473 152.54 34.244 153.156 34.244C153.576 34.244 153.972 34.0667 154.346 33.712C154.728 33.3573 155.088 32.8627 155.424 32.228L155.9 32.452C155.676 32.9 155.452 33.2967 155.228 33.642C155.004 33.978 154.761 34.2627 154.5 34.496C154.248 34.72 153.968 34.888 153.66 35C153.352 35.112 153.011 35.168 152.638 35.168ZM152.582 30.884C153.515 30.7627 154.178 30.5433 154.57 30.226C154.962 29.8993 155.158 29.4887 155.158 28.994C155.158 28.7607 155.102 28.5693 154.99 28.42C154.887 28.2707 154.705 28.196 154.444 28.196C154.238 28.196 154.052 28.2427 153.884 28.336C153.716 28.42 153.557 28.5693 153.408 28.784C153.258 28.9893 153.114 29.2647 152.974 29.61C152.843 29.9553 152.712 30.38 152.582 30.884ZM158.419 35.168C158.055 35.168 157.794 35.0747 157.635 34.888C157.477 34.692 157.397 34.4727 157.397 34.23C157.397 34.118 157.411 33.9967 157.439 33.866C157.467 33.726 157.491 33.6093 157.509 33.516L158.769 28.448H157.551L157.733 27.72H158.307C158.606 27.72 158.83 27.6733 158.979 27.58C159.129 27.4773 159.269 27.3093 159.399 27.076L160.141 25.774H160.939L160.463 27.72H162.171L161.989 28.448H160.281L158.881 34.076L159.119 34.216L160.967 32.704L161.345 33.054L160.029 34.286C159.833 34.4727 159.661 34.6267 159.511 34.748C159.362 34.86 159.227 34.9487 159.105 35.014C158.984 35.0793 158.867 35.1213 158.755 35.14C158.653 35.1587 158.541 35.168 158.419 35.168ZM163.673 35.168C163.15 35.168 162.772 34.986 162.539 34.622C162.315 34.258 162.203 33.74 162.203 33.068C162.203 32.4893 162.287 31.878 162.455 31.234C162.623 30.5807 162.861 29.9833 163.169 29.442C163.486 28.8913 163.869 28.4387 164.317 28.084C164.774 27.7293 165.287 27.552 165.857 27.552C166.267 27.552 166.603 27.6547 166.865 27.86C167.126 28.0653 167.308 28.392 167.411 28.84H167.551L168.265 27.72H169.021L167.397 34.118L167.649 34.23L169.105 32.634L169.525 32.914L168.615 34.076C168.288 34.4867 168.008 34.7713 167.775 34.93C167.551 35.0887 167.317 35.168 167.075 35.168C166.72 35.168 166.468 35.0747 166.319 34.888C166.179 34.7013 166.109 34.4867 166.109 34.244C166.109 34.1227 166.118 33.992 166.137 33.852C166.165 33.712 166.193 33.5907 166.221 33.488L166.431 32.648L166.291 32.606C166.123 32.97 165.95 33.3107 165.773 33.628C165.595 33.936 165.399 34.2067 165.185 34.44C164.979 34.664 164.751 34.8413 164.499 34.972C164.247 35.1027 163.971 35.168 163.673 35.168ZM164.261 34.104C164.522 34.104 164.793 33.964 165.073 33.684C165.353 33.3947 165.614 33.0493 165.857 32.648C166.109 32.2373 166.328 31.808 166.515 31.36C166.701 30.912 166.837 30.5247 166.921 30.198L166.991 29.918C167.103 29.47 167.103 29.106 166.991 28.826C166.879 28.546 166.636 28.406 166.263 28.406C165.833 28.406 165.427 28.616 165.045 29.036C164.671 29.4467 164.368 30.0767 164.135 30.926C164.088 31.0847 164.041 31.2667 163.995 31.472C163.957 31.668 163.92 31.8687 163.883 32.074C163.855 32.2793 163.827 32.4753 163.799 32.662C163.78 32.8487 163.771 33.012 163.771 33.152C163.771 33.4507 163.803 33.684 163.869 33.852C163.934 34.02 164.065 34.104 164.261 34.104ZM171.603 28.756H170.399L170.553 28.126L173.269 27.552L172.625 30.1L172.765 30.142C172.933 29.722 173.101 29.3533 173.269 29.036C173.437 28.7093 173.614 28.4387 173.801 28.224C173.988 28 174.193 27.832 174.417 27.72C174.641 27.608 174.888 27.552 175.159 27.552C175.542 27.552 175.831 27.65 176.027 27.846C176.232 28.0327 176.335 28.2753 176.335 28.574C176.335 28.854 176.246 29.1013 176.069 29.316C175.892 29.5307 175.649 29.638 175.341 29.638C175.108 29.638 174.916 29.5727 174.767 29.442C174.627 29.3113 174.557 29.1387 174.557 28.924C174.557 28.7933 174.585 28.6673 174.641 28.546C174.706 28.4153 174.776 28.3127 174.851 28.238L174.767 28.14C174.524 28.1867 174.263 28.3967 173.983 28.77C173.703 29.134 173.423 29.6053 173.143 30.184C173.059 30.3613 172.961 30.576 172.849 30.828C172.737 31.08 172.625 31.3553 172.513 31.654C172.41 31.9433 172.308 32.2467 172.205 32.564C172.102 32.8813 172.014 33.1893 171.939 33.488L171.561 35H170.049L171.603 28.756Z" fill="white"/>
</svg>
